<?xml version="1.0" encoding="UTF-8" standalone="no"?>
<!DOCTYPE svg PUBLIC "-//W3C//DTD SVG 1.1//EN" "http://www.w3.org/Graphics/SVG/1.1/DTD/svg11.dtd">
<!-- Generated by Microsoft Visio, SVG Export accelerator.svg Page-1 -->
<svg xmlns="http://www.w3.org/2000/svg" xmlns:xlink="http://www.w3.org/1999/xlink" xmlns:ev="http://www.w3.org/2001/xml-events"
		xmlns:v="http://schemas.microsoft.com/visio/2003/SVGExtensions/" width="4.92126in" height="1.06299in"
		viewBox="0 0 354.331 76.5354" xml:space="preserve" color-interpolation-filters="sRGB" class="st7">
	<v:documentProperties v:langID="4096" v:metric="true" v:viewMarkup="false">
		<v:userDefs>
			<v:ud v:nameU="msvNoAutoConnect" v:val="VT0(1):26"/>
		</v:userDefs>
	</v:documentProperties>

	<style type="text/css">
	<![CDATA[
		.st1 {fill:#fee599;stroke:#000000;stroke-linecap:round;stroke-linejoin:round;stroke-width:3}
		.st2 {fill:#ffffff;stroke:none;stroke-linecap:round;stroke-linejoin:round;stroke-width:0.72}
		.st3 {stroke:#000000;stroke-linecap:round;stroke-linejoin:round;stroke-width:2.16}
		.st4 {marker-start:url(#mrkr13-25);stroke:#000000;stroke-linecap:round;stroke-linejoin:round;stroke-width:2.16}
		.st5 {fill:#000000;fill-opacity:1;stroke:#000000;stroke-opacity:1;stroke-width:0.46153846153846}
		.st6 {fill:#000000;stroke:none;stroke-linecap:butt;stroke-width:1}
		.st7 {fill:none;fill-rule:evenodd;font-size:12px;overflow:visible;stroke-linecap:square;stroke-miterlimit:3}
	]]>
	</style>

	<defs id="Markers">
		<g id="lend13">
			<path d="M 3 1 L 0 0 L 3 -1 L 3 1 " style="stroke:none"/>
		</g>
		<marker id="mrkr13-25" class="st5" v:arrowType="13" v:arrowSize="2" v:setback="6.33333" refX="6.3333333333333"
				orient="auto" markerUnits="strokeWidth" overflow="visible">
			<use xlink:href="#lend13" transform="scale(2.1666666666667) "/>
		</marker>
	</defs>
	<g v:mID="0" v:index="1" v:groupContext="foregroundPage">
		<title>Page-1</title>
		<v:pageProperties v:drawingScale="0.0393701" v:pageScale="0.0393701" v:drawingUnits="24" v:shadowOffsetX="8.50394"
				v:shadowOffsetY="-8.50394"/>
		<g id="shape2-1" v:mID="2" v:groupContext="shape" transform="translate(53.8583,-10.7717)">
			<title>Sheet.2</title>
			<rect x="0" y="19.8425" width="56.6929" height="56.6929" class="st1"/>
		</g>
		<g id="shape3-3" v:mID="3" v:groupContext="shape" transform="translate(132.945,51.5905) rotate(-90)">
			<title>Sheet.3</title>
			<rect x="0" y="19.8425" width="28.3465" height="56.6929" class="st2"/>
		</g>
		<g id="shape5-5" v:mID="5" v:groupContext="shape" transform="translate(132.945,51.5905) rotate(-90)">
			<title>Sheet.5</title>
			<path d="M0 5.67 L0 76.54 L28.35 76.54 L28.35 5.67" class="st3"/>
		</g>
		<g id="shape6-8" v:mID="6" v:groupContext="shape" transform="translate(118.772,51.5905) rotate(-90)">
			<title>Sheet.6</title>
			<path d="M0 76.54 L28.35 76.54" class="st3"/>
		</g>
		<g id="shape7-11" v:mID="7" v:groupContext="shape" transform="translate(104.598,51.5905) rotate(-90)">
			<title>Sheet.7</title>
			<path d="M0 76.54 L28.35 76.54" class="st3"/>
		</g>
		<g id="shape8-14" v:mID="8" v:groupContext="shape" transform="translate(90.4252,51.5905) rotate(-90)">
			<title>Sheet.8</title>
			<path d="M0 76.54 L28.35 76.54" class="st3"/>
		</g>
		<g id="shape9-17" v:mID="9" v:groupContext="shape" transform="translate(76.252,51.5905) rotate(-90)">
			<title>Sheet.9</title>
			<path d="M0 76.54 L28.35 76.54" class="st3"/>
		</g>
		<g id="shape10-20" v:mID="10" v:groupContext="shape" transform="translate(252,113.953) rotate(180)">
			<title>Sheet.10</title>
			<path d="M13.68 76.54 L14.04 76.54 L42.52 76.54" class="st4"/>
		</g>
		<g id="shape11-26" v:mID="11" v:groupContext="shape" transform="translate(152.787,113.953) rotate(180)">
			<title>Sheet.11</title>
			<path d="M13.68 76.54 L14.04 76.54 L42.52 76.54" class="st4"/>
		</g>
		<g id="shape13-31" v:mID="13" v:groupContext="shape" transform="translate(252.283,-10.7717)">
			<title>Sheet.13</title>
			<rect x="0" y="19.8425" width="56.6929" height="56.6929" class="st1"/>
		</g>
		<g id="shape14-33" v:mID="14" v:groupContext="shape" transform="translate(351.496,113.953) rotate(180)">
			<title>Sheet.14</title>
			<path d="M13.68 76.54 L14.04 76.54 L42.52 76.54" class="st4"/>
		</g>
		<g id="shape15-38" v:mID="15" v:groupContext="shape" transform="translate(53.8583,113.953) rotate(180)">
			<title>Sheet.15</title>
			<path d="M13.68 76.54 L14.04 76.54 L42.52 76.54" class="st4"/>
		</g>
		<g id="group16-43" transform="translate(68.9819,-47.0538)" v:mID="16" v:groupContext="group">
			<title>Sheet.16</title>
			<g id="group17-44" v:mID="17" v:groupContext="group">
				<title>Sheet.17</title>
				<g id="shape18-45" v:mID="18" v:groupContext="shape">
					<title>g0-73</title>
					<path d="M3.29 70.45 C3.37 70.13 3.43 70.04 4.11 70.04 C4.32 70.04 4.42 70.04 4.42 69.85 C4.42 69.73 4.32 69.73
								 4.28 69.73 C3.89 69.73 3.47 69.76 3.06 69.76 C2.65 69.76 2.22 69.73 1.81 69.73 C1.74 69.73 1.62
								 69.73 1.62 69.91 C1.62 70.04 1.69 70.04 1.89 70.04 C2.23 70.04 2.52 70.04 2.52 70.21 C2.52 70.24
								 2.5 70.37 2.49 70.4 L1.14 75.82 C1.06 76.15 0.97 76.23 0.3 76.23 C0.09 76.23 0 76.23 0 76.41 C0
								 76.52 0.07 76.54 0.14 76.54 C0.54 76.54 0.96 76.51 1.36 76.51 C1.77 76.51 2.2 76.54 2.6 76.54 C2.67
								 76.54 2.8 76.54 2.8 76.35 C2.8 76.23 2.72 76.23 2.52 76.23 C1.9 76.23 1.9 76.16 1.9 76.05 C1.9 76.04
								 1.9 75.98 1.94 75.83 L3.29 70.45 Z" class="st6"/>
				</g>
				<g id="shape19-47" v:mID="19" v:groupContext="shape" transform="translate(3.84113,0)">
					<title>Sheet.19</title>
					<path d="M3.29 70.45 C3.37 70.13 3.43 70.04 4.11 70.04 C4.32 70.04 4.42 70.04 4.42 69.85 C4.42 69.73 4.32 69.73
								 4.28 69.73 C3.89 69.73 3.47 69.76 3.06 69.76 C2.65 69.76 2.22 69.73 1.81 69.73 C1.74 69.73 1.62
								 69.73 1.62 69.91 C1.62 70.04 1.69 70.04 1.89 70.04 C2.23 70.04 2.52 70.04 2.52 70.21 C2.52 70.24
								 2.5 70.37 2.49 70.4 L1.14 75.82 C1.06 76.15 0.97 76.23 0.3 76.23 C0.09 76.23 0 76.23 0 76.41 C0
								 76.52 0.07 76.54 0.14 76.54 C0.54 76.54 0.96 76.51 1.36 76.51 C1.77 76.51 2.2 76.54 2.6 76.54 C2.67
								 76.54 2.8 76.54 2.8 76.35 C2.8 76.23 2.72 76.23 2.52 76.23 C1.9 76.23 1.9 76.16 1.9 76.05 C1.9 76.04
								 1.9 75.98 1.94 75.83 L3.29 70.45 Z" class="st6"/>
				</g>
				<g id="shape20-49" v:mID="20" v:groupContext="shape" transform="translate(12.0143,-1.32503)">
					<title>g1-61</title>
					<path d="M6.29 74.6 C6.44 74.6 6.63 74.6 6.63 74.4 C6.63 74.2 6.44 74.2 6.3 74.2 L0.33 74.2 C0.19 74.2 0 74.2
								 0 74.4 C0 74.6 0.19 74.6 0.34 74.6 L6.29 74.6 ZM6.3 76.54 C6.44 76.54 6.63 76.54 6.63 76.34 C6.63
								 76.14 6.44 76.14 6.29 76.14 L0.34 76.14 C0.19 76.14 0 76.14 0 76.34 C0 76.54 0.19 76.54 0.33 76.54
								 L6.3 76.54 Z" class="st6"/>
				</g>
				<g id="shape21-51" v:mID="21" v:groupContext="shape" transform="translate(22.4706,-2.84217E-14)">
					<title>g1-50</title>
					<path d="M0.77 75.77 L1.82 74.74 C3.38 73.37 3.98 72.83 3.98 71.83 C3.98 70.7 3.08 69.9 1.86 69.9 C0.74 69.9
								 0 70.82 0 71.7 C0 72.26 0.5 72.26 0.53 72.26 C0.7 72.26 1.05 72.14 1.05 71.73 C1.05 71.47 0.87 71.22
								 0.52 71.22 C0.44 71.22 0.42 71.22 0.39 71.23 C0.62 70.58 1.16 70.21 1.73 70.21 C2.64 70.21 3.07
								 71.02 3.07 71.83 C3.07 72.63 2.57 73.42 2.02 74.03 L0.11 76.17 C0 76.28 0 76.3 0 76.54 L3.7 76.54
								 L3.98 74.8 L3.73 74.8 C3.68 75.1 3.61 75.54 3.51 75.69 C3.44 75.77 2.78 75.77 2.56 75.77 L0.77 75.77
								 Z" class="st6"/>
				</g>
			</g>
		</g>
		<g id="group34-53" transform="translate(267.407,-47.0538)" v:mID="34" v:groupContext="group">
			<title>Sheet.34</title>
			<g id="group35-54" v:mID="35" v:groupContext="group">
				<title>Sheet.35</title>
				<g id="shape36-55" v:mID="36" v:groupContext="shape">
					<title>g0-73</title>
					<path d="M3.29 70.45 C3.37 70.13 3.43 70.04 4.11 70.04 C4.32 70.04 4.42 70.04 4.42 69.85 C4.42 69.73 4.32 69.73
								 4.28 69.73 C3.89 69.73 3.47 69.76 3.06 69.76 C2.65 69.76 2.22 69.73 1.81 69.73 C1.74 69.73 1.62
								 69.73 1.62 69.91 C1.62 70.04 1.69 70.04 1.89 70.04 C2.23 70.04 2.52 70.04 2.52 70.21 C2.52 70.24
								 2.5 70.37 2.49 70.4 L1.14 75.82 C1.06 76.15 0.97 76.23 0.3 76.23 C0.09 76.23 0 76.23 0 76.41 C0
								 76.52 0.07 76.54 0.14 76.54 C0.54 76.54 0.96 76.51 1.36 76.51 C1.77 76.51 2.2 76.54 2.6 76.54 C2.67
								 76.54 2.8 76.54 2.8 76.35 C2.8 76.23 2.72 76.23 2.52 76.23 C1.9 76.23 1.9 76.16 1.9 76.05 C1.9 76.04
								 1.9 75.98 1.94 75.83 L3.29 70.45 Z" class="st6"/>
				</g>
				<g id="shape37-57" v:mID="37" v:groupContext="shape" transform="translate(3.84113,0)">
					<title>Sheet.37</title>
					<path d="M3.29 70.45 C3.37 70.13 3.43 70.04 4.11 70.04 C4.32 70.04 4.42 70.04 4.42 69.85 C4.42 69.73 4.32 69.73
								 4.28 69.73 C3.89 69.73 3.47 69.76 3.06 69.76 C2.65 69.76 2.22 69.73 1.81 69.73 C1.74 69.73 1.62
								 69.73 1.62 69.91 C1.62 70.04 1.69 70.04 1.89 70.04 C2.23 70.04 2.52 70.04 2.52 70.21 C2.52 70.24
								 2.5 70.37 2.49 70.4 L1.14 75.82 C1.06 76.15 0.97 76.23 0.3 76.23 C0.09 76.23 0 76.23 0 76.41 C0
								 76.52 0.07 76.54 0.14 76.54 C0.54 76.54 0.96 76.51 1.36 76.51 C1.77 76.51 2.2 76.54 2.6 76.54 C2.67
								 76.54 2.8 76.54 2.8 76.35 C2.8 76.23 2.72 76.23 2.52 76.23 C1.9 76.23 1.9 76.16 1.9 76.05 C1.9 76.04
								 1.9 75.98 1.94 75.83 L3.29 70.45 Z" class="st6"/>
				</g>
				<g id="shape38-59" v:mID="38" v:groupContext="shape" transform="translate(12.0143,-1.32503)">
					<title>g1-61</title>
					<path d="M6.29 74.6 C6.44 74.6 6.63 74.6 6.63 74.4 C6.63 74.2 6.44 74.2 6.3 74.2 L0.33 74.2 C0.19 74.2 0 74.2
								 0 74.4 C0 74.6 0.19 74.6 0.34 74.6 L6.29 74.6 ZM6.3 76.54 C6.44 76.54 6.63 76.54 6.63 76.34 C6.63
								 76.14 6.44 76.14 6.29 76.14 L0.34 76.14 C0.19 76.14 0 76.14 0 76.34 C0 76.54 0.19 76.54 0.33 76.54
								 L6.3 76.54 Z" class="st6"/>
				</g>
				<g id="shape39-61" v:mID="39" v:groupContext="shape" transform="translate(22.4706,-2.84217E-14)">
					<title>g1-50</title>
					<path d="M0.77 75.77 L1.82 74.74 C3.38 73.37 3.98 72.83 3.98 71.83 C3.98 70.7 3.08 69.9 1.86 69.9 C0.74 69.9
								 0 70.82 0 71.7 C0 72.26 0.5 72.26 0.53 72.26 C0.7 72.26 1.05 72.14 1.05 71.73 C1.05 71.47 0.87 71.22
								 0.52 71.22 C0.44 71.22 0.42 71.22 0.39 71.23 C0.62 70.58 1.16 70.21 1.73 70.21 C2.64 70.21 3.07
								 71.02 3.07 71.83 C3.07 72.63 2.57 73.42 2.02 74.03 L0.11 76.17 C0 76.28 0 76.3 0 76.54 L3.7 76.54
								 L3.98 74.8 L3.73 74.8 C3.68 75.1 3.61 75.54 3.51 75.69 C3.44 75.77 2.78 75.77 2.56 75.77 L0.77 75.77
								 Z" class="st6"/>
				</g>
			</g>
		</g>
		<g id="group40-63" transform="translate(266.881,-27.7788)" v:mID="40" v:groupContext="group">
			<title>Sheet.40</title>
			<g id="group41-64" v:mID="41" v:groupContext="group">
				<title>Sheet.41</title>
				<g id="shape42-65" v:mID="42" v:groupContext="shape">
					<title>g0-73</title>
					<path d="M3.29 70.45 C3.37 70.13 3.43 70.04 4.11 70.04 C4.32 70.04 4.42 70.04 4.42 69.85 C4.42 69.73 4.32 69.73
								 4.28 69.73 C3.89 69.73 3.47 69.76 3.06 69.76 C2.65 69.76 2.22 69.73 1.81 69.73 C1.74 69.73 1.62
								 69.73 1.62 69.91 C1.62 70.04 1.69 70.04 1.89 70.04 C2.23 70.04 2.52 70.04 2.52 70.21 C2.52 70.24
								 2.5 70.37 2.49 70.4 L1.14 75.82 C1.06 76.15 0.97 76.23 0.3 76.23 C0.09 76.23 0 76.23 0 76.41 C0
								 76.52 0.07 76.54 0.14 76.54 C0.54 76.54 0.96 76.51 1.36 76.51 C1.77 76.51 2.2 76.54 2.6 76.54 C2.67
								 76.54 2.8 76.54 2.8 76.35 C2.8 76.23 2.72 76.23 2.52 76.23 C1.9 76.23 1.9 76.16 1.9 76.05 C1.9 76.04
								 1.9 75.98 1.94 75.83 L3.29 70.45 Z" class="st6"/>
				</g>
				<g id="shape43-67" v:mID="43" v:groupContext="shape" transform="translate(3.89094,0)">
					<title>g0-76</title>
					<path d="M3.23 70.49 C3.32 70.14 3.38 70.04 4.18 70.04 L4.28 70.04 C4.45 70.04 4.56 70.04 4.56 69.85 C4.56 69.73
								 4.45 69.73 4.41 69.73 C3.97 69.73 3.5 69.76 3.04 69.76 C2.63 69.76 2.21 69.73 1.81 69.73 C1.75 69.73
								 1.62 69.73 1.62 69.92 C1.62 70.04 1.7 70.04 1.89 70.04 C2.2 70.04 2.47 70.04 2.47 70.21 C2.47 70.24
								 2.47 70.26 2.43 70.4 L1.09 75.81 C1.01 76.15 0.95 76.23 0.27 76.23 C0.11 76.23 0 76.23 0 76.42 C0
								 76.54 0.09 76.54 0.25 76.54 L4.51 76.54 C4.73 76.54 4.74 76.53 4.8 76.36 L5.56 74.21 C5.56 74.2
								 5.6 74.09 5.6 74.08 C5.6 73.97 5.48 73.97 5.45 73.97 C5.33 73.97 5.32 73.99 5.25 74.18 C4.93 75.07
								 4.5 76.23 2.95 76.23 L2.14 76.23 C1.83 76.23 1.83 76.2 1.83 76.13 C1.83 76.07 1.86 75.97 1.87 75.91
								 L3.23 70.49 Z" class="st6"/>
				</g>
				<g id="shape44-69" v:mID="44" v:groupContext="shape" transform="translate(12.8472,-1.32503)">
					<title>g1-61</title>
					<path d="M6.29 74.6 C6.44 74.6 6.63 74.6 6.63 74.4 C6.63 74.2 6.44 74.2 6.3 74.2 L0.33 74.2 C0.19 74.2 0 74.2
								 0 74.4 C0 74.6 0.19 74.6 0.34 74.6 L6.29 74.6 ZM6.3 76.54 C6.44 76.54 6.63 76.54 6.63 76.34 C6.63
								 76.14 6.44 76.14 6.29 76.14 L0.34 76.14 C0.19 76.14 0 76.14 0 76.34 C0 76.54 0.19 76.54 0.33 76.54
								 L6.3 76.54 Z" class="st6"/>
				</g>
				<g id="shape45-71" v:mID="45" v:groupContext="shape" transform="translate(23.0844,0)">
					<title>g1-52</title>
					<path d="M2.65 74.89 L2.65 75.76 C2.65 76.12 2.63 76.23 1.89 76.23 L1.68 76.23 L1.68 76.54 C2.09 76.51 2.61 76.51
								 3.03 76.51 C3.45 76.51 3.98 76.51 4.38 76.54 L4.38 76.23 L4.17 76.23 C3.44 76.23 3.42 76.12 3.42
								 75.76 L3.42 74.89 L4.41 74.89 L4.41 74.58 L3.42 74.58 L3.42 70.05 C3.42 69.85 3.42 69.79 3.26 69.79
								 C3.17 69.79 3.14 69.79 3.06 69.91 L0 74.58 L0 74.89 L2.65 74.89 ZM2.71 74.58 L0.28 74.58 L2.71 70.87
								 L2.71 74.58 Z" class="st6"/>
				</g>
			</g>
		</g>
		<g id="group46-73" transform="translate(68.5256,-27.6693)" v:mID="46" v:groupContext="group">
			<title>Sheet.46</title>
			<g id="group47-74" v:mID="47" v:groupContext="group">
				<title>Sheet.47</title>
				<g id="shape48-75" v:mID="48" v:groupContext="shape" transform="translate(2.7478E-14,-0.219178)">
					<title>g0-73</title>
					<path d="M3.29 70.45 C3.37 70.13 3.43 70.04 4.11 70.04 C4.32 70.04 4.42 70.04 4.42 69.85 C4.42 69.73 4.32 69.73
								 4.28 69.73 C3.89 69.73 3.47 69.76 3.06 69.76 C2.65 69.76 2.22 69.73 1.81 69.73 C1.74 69.73 1.62
								 69.73 1.62 69.91 C1.62 70.04 1.69 70.04 1.89 70.04 C2.23 70.04 2.52 70.04 2.52 70.21 C2.52 70.24
								 2.5 70.37 2.49 70.4 L1.14 75.82 C1.06 76.15 0.97 76.23 0.3 76.23 C0.09 76.23 0 76.23 0 76.41 C0
								 76.52 0.07 76.54 0.14 76.54 C0.54 76.54 0.96 76.51 1.36 76.51 C1.77 76.51 2.2 76.54 2.6 76.54 C2.67
								 76.54 2.8 76.54 2.8 76.35 C2.8 76.23 2.72 76.23 2.52 76.23 C1.9 76.23 1.9 76.16 1.9 76.05 C1.9 76.04
								 1.9 75.98 1.94 75.83 L3.29 70.45 Z" class="st6"/>
				</g>
				<g id="shape49-77" v:mID="49" v:groupContext="shape" transform="translate(3.89094,-0.219178)">
					<title>g0-76</title>
					<path d="M3.23 70.49 C3.32 70.14 3.38 70.04 4.18 70.04 L4.28 70.04 C4.45 70.04 4.56 70.04 4.56 69.85 C4.56 69.73
								 4.45 69.73 4.41 69.73 C3.97 69.73 3.5 69.76 3.04 69.76 C2.63 69.76 2.21 69.73 1.81 69.73 C1.75 69.73
								 1.62 69.73 1.62 69.92 C1.62 70.04 1.7 70.04 1.89 70.04 C2.2 70.04 2.47 70.04 2.47 70.21 C2.47 70.24
								 2.47 70.26 2.43 70.4 L1.09 75.81 C1.01 76.15 0.95 76.23 0.27 76.23 C0.11 76.23 0 76.23 0 76.42 C0
								 76.54 0.09 76.54 0.25 76.54 L4.51 76.54 C4.73 76.54 4.74 76.53 4.8 76.36 L5.56 74.21 C5.56 74.2
								 5.6 74.09 5.6 74.08 C5.6 73.97 5.48 73.97 5.45 73.97 C5.33 73.97 5.32 73.99 5.25 74.18 C4.93 75.07
								 4.5 76.23 2.95 76.23 L2.14 76.23 C1.83 76.23 1.83 76.2 1.83 76.13 C1.83 76.07 1.86 75.97 1.87 75.91
								 L3.23 70.49 Z" class="st6"/>
				</g>
				<g id="shape50-79" v:mID="50" v:groupContext="shape" transform="translate(12.8472,-1.54421)">
					<title>g1-61</title>
					<path d="M6.29 74.6 C6.44 74.6 6.63 74.6 6.63 74.4 C6.63 74.2 6.44 74.2 6.3 74.2 L0.33 74.2 C0.19 74.2 0 74.2
								 0 74.4 C0 74.6 0.19 74.6 0.34 74.6 L6.29 74.6 ZM6.3 76.54 C6.44 76.54 6.63 76.54 6.63 76.34 C6.63
								 76.14 6.44 76.14 6.29 76.14 L0.34 76.14 C0.19 76.14 0 76.14 0 76.34 C0 76.54 0.19 76.54 0.33 76.54
								 L6.3 76.54 Z" class="st6"/>
				</g>
				<g id="shape51-81" v:mID="51" v:groupContext="shape" transform="translate(23.2238,-2.84217E-14)">
					<title>g1-54</title>
					<path d="M0.9 73.05 L0.9 72.81 C0.9 70.29 2.13 69.93 2.64 69.93 C2.88 69.93 3.3 69.99 3.52 70.33 C3.37 70.33
								 2.97 70.33 2.97 70.78 C2.97 71.09 3.21 71.24 3.43 71.24 C3.59 71.24 3.89 71.15 3.89 70.76 C3.89
								 70.16 3.45 69.68 2.62 69.68 C1.34 69.68 0 70.97 0 73.17 C0 75.83 1.16 76.54 2.08 76.54 C3.19 76.54
								 4.13 75.6 4.13 74.28 C4.13 73.02 3.25 72.06 2.14 72.06 C1.46 72.06 1.1 72.57 0.9 73.05 ZM2.08 76.26
								 C1.45 76.26 1.16 75.66 1.1 75.51 C0.92 75.04 0.92 74.24 0.92 74.06 C0.92 73.29 1.24 72.29 2.13 72.29
								 C2.29 72.29 2.75 72.29 3.06 72.91 C3.24 73.28 3.24 73.79 3.24 74.27 C3.24 74.75 3.24 75.25 3.07
								 75.61 C2.77 76.21 2.31 76.26 2.08 76.26 Z" class="st6"/>
				</g>
			</g>
		</g>
	</g>
</svg>
