<?xml version="1.0" encoding="UTF-8" standalone="no"?>
<!DOCTYPE svg PUBLIC "-//W3C//DTD SVG 1.1//EN" "http://www.w3.org/Graphics/SVG/1.1/DTD/svg11.dtd">
<!-- Generated by Microsoft Visio, SVG Export cm.svg Page-1 -->
<svg xmlns="http://www.w3.org/2000/svg" xmlns:xlink="http://www.w3.org/1999/xlink" xmlns:ev="http://www.w3.org/2001/xml-events"
		xmlns:v="http://schemas.microsoft.com/visio/2003/SVGExtensions/" width="3.74016in" height="0.984252in"
		viewBox="0 0 269.291 70.8661" xml:space="preserve" color-interpolation-filters="sRGB" class="st8">
	<v:documentProperties v:langID="1033" v:viewMarkup="false">
		<v:userDefs>
			<v:ud v:nameU="msvNoAutoConnect" v:val="VT0(1):26"/>
			<v:ud v:nameU="msvConvertTheme"/>
		</v:userDefs>
	</v:documentProperties>

	<style type="text/css">
	<![CDATA[
		.st1 {fill:#ffff99;stroke:#000000;stroke-linecap:round;stroke-linejoin:round;stroke-width:1.5}
		.st2 {fill:#000000;font-family:Calibri;font-size:0.75em}
		.st3 {marker-start:url(#mrkr13-15);stroke:#000000;stroke-linecap:round;stroke-linejoin:round;stroke-width:0.72}
		.st4 {fill:#000000;fill-opacity:1;stroke:#000000;stroke-opacity:1;stroke-width:0.28571428571429}
		.st5 {fill:#000000;stroke:none;stroke-linecap:round;stroke-linejoin:round;stroke-width:0.24}
		.st6 {fill:none;stroke:none;stroke-linecap:round;stroke-linejoin:round;stroke-width:0.72}
		.st7 {fill:#000000;font-family:Times New Roman;font-size:1.00001em;font-style:italic}
		.st8 {fill:none;fill-rule:evenodd;font-size:12px;overflow:visible;stroke-linecap:square;stroke-miterlimit:3}
	]]>
	</style>

	<defs id="Markers">
		<g id="lend13">
			<path d="M 3 1 L 0 0 L 3 -1 L 3 1 " style="stroke:none"/>
		</g>
		<marker id="mrkr13-15" class="st4" v:arrowType="13" v:arrowSize="1" v:setback="10" refX="10" orient="auto"
				markerUnits="strokeWidth" overflow="visible">
			<use xlink:href="#lend13" transform="scale(3.5) "/>
		</marker>
	</defs>
	<g v:mID="0" v:index="1" v:groupContext="foregroundPage">
		<v:userDefs>
			<v:ud v:nameU="SchemeName" v:val="VT4(Default)"/>
		</v:userDefs>
		<title>Page-1</title>
		<v:pageProperties v:drawingScale="0.0393701" v:pageScale="0.0393701" v:drawingUnits="24" v:shadowOffsetX="8.50394"
				v:shadowOffsetY="-8.50394"/>
		<v:layer v:name="Connector" v:index="0"/>
		<g id="shape176-1" v:mID="176" v:groupContext="shape" transform="translate(3.54331,-2.83465)">
			<title>Circle.176</title>
			<desc>rd,2</desc>
			<v:userDefs>
				<v:ud v:nameU="visVersion" v:val="VT0(11):26"/>
			</v:userDefs>
			<v:textBlock v:margins="rect(4,4,4,4)" v:tabSpace="42.5197"/>
			<v:textRect cx="14.1732" cy="56.6929" width="24.81" height="21.2598"/>
			<path d="M0 56.69 A14.1732 14.1732 0 0 1 28.35 56.69 A14.1732 14.1732 0 1 1 0 56.69 Z" class="st1"/>
			<text x="6.84" y="59.39" class="st2" v:langID="1033"><v:paragraph v:horizAlign="1"/><v:tabList/>rd,2</text>		</g>
		<g id="shape177-4" v:mID="177" v:groupContext="shape" transform="translate(81.4961,-2.83465)">
			<title>Circle.177</title>
			<desc>ii,4</desc>
			<v:userDefs>
				<v:ud v:nameU="visVersion" v:val="VT0(11):26"/>
			</v:userDefs>
			<v:textBlock v:margins="rect(4,4,4,4)" v:tabSpace="42.5197"/>
			<v:textRect cx="14.1732" cy="56.6929" width="24.81" height="21.2598"/>
			<path d="M0 56.69 A14.1732 14.1732 0 0 1 28.35 56.69 A14.1732 14.1732 0 1 1 0 56.69 Z" class="st1"/>
			<text x="8.7" y="59.39" class="st2" v:langID="1033"><v:paragraph v:horizAlign="1"/><v:tabList/>ii,4</text>		</g>
		<g id="shape178-7" v:mID="178" v:groupContext="shape" transform="translate(159.449,-2.83465)">
			<title>Circle.178</title>
			<desc>l,5</desc>
			<v:userDefs>
				<v:ud v:nameU="visVersion" v:val="VT0(11):26"/>
			</v:userDefs>
			<v:textBlock v:margins="rect(4,4,4,4)" v:tabSpace="42.5197"/>
			<v:textRect cx="14.1732" cy="56.6929" width="24.81" height="21.2598"/>
			<path d="M0 56.69 A14.1732 14.1732 0 0 1 28.35 56.69 A14.1732 14.1732 0 1 1 0 56.69 Z" class="st1"/>
			<text x="9.74" y="59.39" class="st2" v:langID="1033"><v:paragraph v:horizAlign="1"/><v:tabList/>l,5</text>		</g>
		<g id="shape195-10" v:mID="195" v:groupContext="shape" transform="translate(81.4961,124.724) rotate(180)">
			<title>Sheet.195</title>
			<path d="M7.2 70.87 L7.56 70.87 L49.61 70.87" class="st3"/>
		</g>
		<g id="shape601-16" v:mID="601" v:groupContext="shape" transform="translate(159.449,124.724) rotate(180)">
			<title>Sheet.601</title>
			<path d="M7.2 70.87 L7.56 70.87 L49.61 70.87" class="st3"/>
		</g>
		<g id="shape602-21" v:mID="602" v:groupContext="shape" transform="translate(237.402,-2.83465)">
			<title>Circle.602</title>
			<desc>wr,2</desc>
			<v:userDefs>
				<v:ud v:nameU="visVersion" v:val="VT0(11):26"/>
			</v:userDefs>
			<v:textBlock v:margins="rect(4,4,4,4)" v:tabSpace="42.5197"/>
			<v:textRect cx="14.1732" cy="56.6929" width="24.81" height="21.2598"/>
			<path d="M0 56.69 A14.1732 14.1732 0 0 1 28.35 56.69 A14.1732 14.1732 0 1 1 0 56.69 Z" class="st1"/>
			<text x="5.98" y="59.39" class="st2" v:langID="1033"><v:paragraph v:horizAlign="1"/><v:tabList/>wr,2</text>		</g>
		<g id="shape605-24" v:mID="605" v:groupContext="shape" transform="translate(237.402,124.724) rotate(180)">
			<title>Sheet.605</title>
			<path d="M7.2 70.87 L7.56 70.87 L49.61 70.87" class="st3"/>
		</g>
		<g id="shape617-29" v:mID="617" v:groupContext="shape" transform="translate(81.4961,-27.1792)">
			<title>Sheet.617</title>
			<path d="M27.69 64.66 L27.87 64.35 A14.1732 14.1732 -180 0 0 28.35 60.69 A14.1732 14.1732 -180 1 0 0 60.69 A14.1732 14.1732
						 -65.37 0 0 4.3 70.87" class="st3"/>
		</g>
		<g id="shape619-34" v:mID="619" v:groupContext="shape" transform="translate(3.54331,-27.1792)">
			<title>Sheet.619</title>
			<path d="M27.69 64.66 L27.87 64.35 A14.1732 14.1732 -180 0 0 28.35 60.69 A14.1732 14.1732 -180 1 0 0 60.69 A14.1732 14.1732
						 -65.37 0 0 4.3 70.87" class="st3"/>
		</g>
		<g id="shape621-39" v:mID="621" v:groupContext="shape" transform="translate(237.402,-27.1792)">
			<title>Sheet.621</title>
			<path d="M27.69 64.66 L27.87 64.35 A14.1732 14.1732 -180 0 0 28.35 60.69 A14.1732 14.1732 -180 1 0 0 60.69 A14.1732 14.1732
						 -65.37 0 0 4.3 70.87" class="st3"/>
		</g>
		<g id="shape622-44" v:mID="622" v:groupContext="shape" transform="translate(15.5906,-53.8583)">
			<title>Sheet.622</title>
			<ellipse cx="2.12598" cy="68.7402" rx="2.12598" ry="2.12598" class="st5"/>
		</g>
		<g id="shape623-46" v:mID="623" v:groupContext="shape" transform="translate(93.5433,-53.8583)">
			<title>Sheet.623</title>
			<ellipse cx="2.12598" cy="68.7402" rx="2.12598" ry="2.12598" class="st5"/>
		</g>
		<g id="shape624-48" v:mID="624" v:groupContext="shape" transform="translate(249.449,-53.8583)">
			<title>Sheet.624</title>
			<ellipse cx="2.12598" cy="68.7402" rx="2.12598" ry="2.12598" class="st5"/>
		</g>
		<g id="shape625-50" v:mID="625" v:groupContext="shape" transform="translate(17.0079,-58.1102)">
			<title>Sheet.625</title>
			<desc>x</desc>
			<v:textBlock v:margins="rect(4,4,4,4)" v:tabSpace="42.5197"/>
			<v:textRect cx="5.38583" cy="65.2807" width="10.78" height="11.1708"/>
			<rect x="0" y="59.6953" width="10.7717" height="11.1708" class="st6"/>
			<text x="4" y="68.88" class="st7" v:langID="1033"><v:paragraph v:horizAlign="1"/><v:tabList/>x</text>		</g>
		<g id="shape626-53" v:mID="626" v:groupContext="shape" transform="translate(97.7953,-58.1102)">
			<title>Sheet.626</title>
			<desc>y</desc>
			<v:textBlock v:margins="rect(4,4,4,4)" v:tabSpace="42.5197"/>
			<v:textRect cx="5.38583" cy="65.2807" width="10.78" height="11.1708"/>
			<rect x="0" y="59.6953" width="10.7717" height="11.1708" class="st6"/>
			<text x="4" y="68.88" class="st7" v:langID="1033"><v:paragraph v:horizAlign="1"/><v:tabList/>y</text>		</g>
		<g id="shape627-56" v:mID="627" v:groupContext="shape" transform="translate(250.866,-58.1102)">
			<title>Sheet.627</title>
			<desc>z</desc>
			<v:textBlock v:margins="rect(4,4,4,4)" v:tabSpace="42.5197"/>
			<v:textRect cx="5.38583" cy="65.2807" width="10.78" height="11.1708"/>
			<rect x="0" y="59.6953" width="10.7717" height="11.1708" class="st6"/>
			<text x="4" y="68.88" class="st7" v:langID="1033"><v:paragraph v:horizAlign="1"/><v:tabList/>z</text>		</g>
	</g>
</svg>
