<?xml version="1.0" encoding="UTF-8" standalone="no"?>
<!DOCTYPE svg PUBLIC "-//W3C//DTD SVG 1.1//EN" "http://www.w3.org/Graphics/SVG/1.1/DTD/svg11.dtd">
<!-- Generated by Microsoft Visio, SVG Export dataflow.svg Page-1 -->
<svg xmlns="http://www.w3.org/2000/svg" xmlns:xlink="http://www.w3.org/1999/xlink" xmlns:ev="http://www.w3.org/2001/xml-events"
		xmlns:v="http://schemas.microsoft.com/visio/2003/SVGExtensions/" width="3.93701in" height="1.22047in"
		viewBox="0 0 283.465 87.874" xml:space="preserve" color-interpolation-filters="sRGB" class="st8">
	<v:documentProperties v:langID="4096" v:metric="true" v:viewMarkup="false">
		<v:userDefs>
			<v:ud v:nameU="msvNoAutoConnect" v:val="VT0(1):26"/>
		</v:userDefs>
	</v:documentProperties>

	<style type="text/css">
	<![CDATA[
		.st1 {fill:#ffff99;stroke:#000000;stroke-linecap:round;stroke-linejoin:round;stroke-width:2.16}
		.st2 {fill:#000000;fill-opacity:1;stroke:#000000;stroke-opacity:1;stroke-width:0.46153846153846}
		.st3 {marker-end:url(#mrkr4-13);stroke:#000000;stroke-linecap:round;stroke-linejoin:round;stroke-width:1.2}
		.st4 {fill:#000000;fill-opacity:1;stroke:#000000;stroke-opacity:1;stroke-width:0.32258064516129}
		.st5 {marker-end:url(#mrkr4-24);stroke:#000000;stroke-linecap:round;stroke-linejoin:round;stroke-width:1.2}
		.st6 {fill:#000000;stroke:#003366;stroke-linecap:round;stroke-linejoin:round;stroke-width:0.72}
		.st7 {fill:#000000;stroke:none;stroke-linecap:butt;stroke-width:1}
		.st8 {fill:none;fill-rule:evenodd;font-size:12px;overflow:visible;stroke-linecap:square;stroke-miterlimit:3}
	]]>
	</style>

	<defs id="Markers">
		<g id="lend4">
			<path d="M 2 1 L 0 0 L 2 -1 L 2 1 " style="stroke:none"/>
		</g>
		<marker id="mrkr4-4" class="st2" v:arrowType="4" v:arrowSize="2" v:setback="4.33333" refX="-4.3333333333333" orient="auto"
				markerUnits="strokeWidth" overflow="visible">
			<use xlink:href="#lend4" transform="scale(-2.1666666666667,-2.1666666666667) "/>
		</marker>
		<marker id="mrkr4-13" class="st4" v:arrowType="4" v:arrowSize="2" v:setback="6.2" refX="-6.2" orient="auto"
				markerUnits="strokeWidth" overflow="visible">
			<use xlink:href="#lend4" transform="scale(-3.1,-3.1) "/>
		</marker>
		<marker id="mrkr4-24" class="st4" v:arrowType="4" v:arrowSize="2" v:setback="5.9" refX="-5.9" orient="auto"
				markerUnits="strokeWidth" overflow="visible">
			<use xlink:href="#lend4" transform="scale(-3.1,-3.1) "/>
		</marker>
	</defs>
	<g v:mID="0" v:index="1" v:groupContext="foregroundPage">
		<title>Page-1</title>
		<v:pageProperties v:drawingScale="0.0393701" v:pageScale="0.0393701" v:drawingUnits="24" v:shadowOffsetX="8.50394"
				v:shadowOffsetY="-8.50394"/>
		<g id="shape46-1" v:mID="46" v:groupContext="shape" transform="translate(49.4408,-30.8798)">
			<title>Circle.2</title>
			<v:userDefs>
				<v:ud v:nameU="visVersion" v:val="VT0(11):26"/>
			</v:userDefs>
			<path d="M0 62.53 A25.3469 25.3469 0 1 1 50.69 62.53 A25.3469 25.3469 0 0 1 0 62.53 Z" class="st1"/>
		</g>
		<g id="shape49-5" v:mID="49" v:groupContext="shape" transform="translate(185.947,-30.8798)">
			<title>Circle.11</title>
			<v:userDefs>
				<v:ud v:nameU="visVersion" v:val="VT0(11):26"/>
			</v:userDefs>
			<path d="M0 62.53 A25.3469 25.3469 0 1 1 50.69 62.53 A25.3469 25.3469 0 0 1 0 62.53 Z" class="st1"/>
		</g>
		<g id="shape50-8" v:mID="50" v:groupContext="shape" transform="translate(7.08661,-56.2267)">
			<title>Sheet.50</title>
			<path d="M0 87.87 L35.08 87.87" class="st3"/>
		</g>
		<g id="shape52-14" v:mID="52" v:groupContext="shape" transform="translate(99.5471,-56.2267)">
			<title>Sheet.52</title>
			<path d="M0 87.87 L78.96 87.87" class="st3"/>
		</g>
		<g id="shape55-19" v:mID="55" v:groupContext="shape" transform="translate(60.6875,-5.97513)">
			<title>Sheet.55</title>
			<path d="M0 58.69 A18 18 -180 1 0 31.52 65.34 L31.36 65.02" class="st5"/>
		</g>
		<g id="shape62-25" v:mID="62" v:groupContext="shape" transform="translate(71.3211,-11.2252)">
			<title>Sheet.62</title>
			<ellipse cx="3.46667" cy="84.274" rx="3.46667" ry="3.6" class="st6"/>
		</g>
		<g id="shape81-27" v:mID="81" v:groupContext="shape" transform="translate(237.973,-56.2267)">
			<title>Sheet.81</title>
			<path d="M0 87.87 L35.08 87.87" class="st3"/>
		</g>
		<g id="group82-32" transform="translate(70.6554,-62.6443)" v:mID="82" v:groupContext="group">
			<title>Sheet.82</title>
			<g id="group83-33" v:mID="83" v:groupContext="group">
				<title>Sheet.83</title>
				<g id="shape84-34" v:mID="84" v:groupContext="shape">
					<title>g0-73</title>
					<path d="M3.29 81.79 C3.37 81.47 3.43 81.38 4.11 81.38 C4.32 81.38 4.42 81.38 4.42 81.19 C4.42 81.07 4.32 81.07
								 4.28 81.07 C3.89 81.07 3.47 81.1 3.06 81.1 C2.65 81.1 2.22 81.07 1.81 81.07 C1.74 81.07 1.62 81.07
								 1.62 81.25 C1.62 81.38 1.69 81.38 1.89 81.38 C2.23 81.38 2.52 81.38 2.52 81.55 C2.52 81.58 2.5 81.71
								 2.49 81.74 L1.14 87.16 C1.06 87.49 0.97 87.57 0.3 87.57 C0.09 87.57 0 87.57 0 87.74 C0 87.85 0.07
								 87.87 0.14 87.87 C0.54 87.87 0.96 87.84 1.36 87.84 C1.77 87.84 2.2 87.87 2.6 87.87 C2.67 87.87 2.8
								 87.87 2.8 87.68 C2.8 87.57 2.72 87.57 2.52 87.57 C1.9 87.57 1.9 87.5 1.9 87.39 C1.9 87.38 1.9 87.32
								 1.94 87.17 L3.29 81.79 Z" class="st7"/>
				</g>
				<g id="shape85-36" v:mID="85" v:groupContext="shape" transform="translate(3.84113,1.42109E-14)">
					<title>Sheet.85</title>
					<path d="M3.29 81.79 C3.37 81.47 3.43 81.38 4.11 81.38 C4.32 81.38 4.42 81.38 4.42 81.19 C4.42 81.07 4.32 81.07
								 4.28 81.07 C3.89 81.07 3.47 81.1 3.06 81.1 C2.65 81.1 2.22 81.07 1.81 81.07 C1.74 81.07 1.62 81.07
								 1.62 81.25 C1.62 81.38 1.69 81.38 1.89 81.38 C2.23 81.38 2.52 81.38 2.52 81.55 C2.52 81.58 2.5 81.71
								 2.49 81.74 L1.14 87.16 C1.06 87.49 0.97 87.57 0.3 87.57 C0.09 87.57 0 87.57 0 87.74 C0 87.85 0.07
								 87.87 0.14 87.87 C0.54 87.87 0.96 87.84 1.36 87.84 C1.77 87.84 2.2 87.87 2.6 87.87 C2.67 87.87 2.8
								 87.87 2.8 87.68 C2.8 87.57 2.72 87.57 2.52 87.57 C1.9 87.57 1.9 87.5 1.9 87.39 C1.9 87.38 1.9 87.32
								 1.94 87.17 L3.29 81.79 Z" class="st7"/>
				</g>
			</g>
		</g>
		<g id="group86-38" transform="translate(72.2741,-42.9712)" v:mID="86" v:groupContext="group">
			<title>Sheet.86</title>
			<g id="shape87-39" v:mID="87" v:groupContext="shape">
				<title>g0-50</title>
				<path d="M0.77 87.11 L1.82 86.08 C3.38 84.71 3.98 84.17 3.98 83.17 C3.98 82.04 3.08 81.24 1.86 81.24 C0.74 81.24
							 0 82.16 0 83.04 C0 83.6 0.5 83.6 0.53 83.6 C0.7 83.6 1.05 83.48 1.05 83.07 C1.05 82.81 0.87 82.55 0.52
							 82.55 C0.44 82.55 0.42 82.55 0.39 82.56 C0.62 81.92 1.16 81.55 1.73 81.55 C2.64 81.55 3.07 82.35 3.07
							 83.17 C3.07 83.97 2.57 84.76 2.02 85.37 L0.11 87.51 C0 87.61 0 87.63 0 87.87 L3.7 87.87 L3.98 86.14
							 L3.73 86.14 C3.68 86.44 3.61 86.88 3.51 87.03 C3.44 87.11 2.78 87.11 2.56 87.11 L0.77 87.11 Z"
						class="st7"/>
			</g>
		</g>
		<g id="group94-41" transform="translate(208.382,-62.6443)" v:mID="94" v:groupContext="group">
			<title>Sheet.94</title>
			<g id="shape95-42" v:mID="95" v:groupContext="shape">
				<title>g0-76</title>
				<path d="M3.23 81.83 C3.32 81.48 3.38 81.38 4.18 81.38 L4.28 81.38 C4.45 81.38 4.56 81.38 4.56 81.19 C4.56 81.07
							 4.45 81.07 4.41 81.07 C3.97 81.07 3.5 81.1 3.04 81.1 C2.63 81.1 2.21 81.07 1.81 81.07 C1.75 81.07 1.62
							 81.07 1.62 81.26 C1.62 81.38 1.7 81.38 1.89 81.38 C2.2 81.38 2.47 81.38 2.47 81.55 C2.47 81.58 2.47
							 81.6 2.43 81.74 L1.09 87.15 C1.01 87.49 0.95 87.57 0.27 87.57 C0.11 87.57 0 87.57 0 87.75 C0 87.87 0.09
							 87.87 0.25 87.87 L4.51 87.87 C4.73 87.87 4.74 87.86 4.8 87.69 L5.56 85.55 C5.56 85.54 5.6 85.43 5.6
							 85.42 C5.6 85.3 5.48 85.3 5.45 85.3 C5.33 85.3 5.32 85.33 5.25 85.52 C4.93 86.41 4.5 87.57 2.95 87.57
							 L2.14 87.57 C1.83 87.57 1.83 87.54 1.83 87.47 C1.83 87.41 1.86 87.31 1.87 87.25 L3.23 81.83 Z"
						class="st7"/>
			</g>
		</g>
		<g id="group96-44" transform="translate(208.448,-42.9164)" v:mID="96" v:groupContext="group">
			<title>Sheet.96</title>
			<g id="shape97-45" v:mID="97" v:groupContext="shape">
				<title>g0-52</title>
				<path d="M2.65 86.23 L2.65 87.1 C2.65 87.46 2.63 87.57 1.89 87.57 L1.68 87.57 L1.68 87.87 C2.09 87.84 2.61 87.84
							 3.03 87.84 C3.45 87.84 3.98 87.84 4.38 87.87 L4.38 87.57 L4.17 87.57 C3.44 87.57 3.42 87.46 3.42 87.1
							 L3.42 86.23 L4.41 86.23 L4.41 85.92 L3.42 85.92 L3.42 81.39 C3.42 81.19 3.42 81.13 3.26 81.13 C3.17
							 81.13 3.14 81.13 3.06 81.25 L0 85.92 L0 86.23 L2.65 86.23 ZM2.71 85.92 L0.28 85.92 L2.71 82.21 L2.71
							 85.92 Z" class="st7"/>
			</g>
		</g>
	</g>
</svg>
