<?xml version="1.0" encoding="UTF-8" standalone="no"?>
<!DOCTYPE svg PUBLIC "-//W3C//DTD SVG 1.1//EN" "http://www.w3.org/Graphics/SVG/1.1/DTD/svg11.dtd">
<!-- Generated by Microsoft Visio, SVG Export dataflow-accelerator.svg Page-1 -->
<svg xmlns="http://www.w3.org/2000/svg" xmlns:xlink="http://www.w3.org/1999/xlink" xmlns:ev="http://www.w3.org/2001/xml-events"
		xmlns:v="http://schemas.microsoft.com/visio/2003/SVGExtensions/" width="6.62598in" height="1.73228in"
		viewBox="0 0 477.071 124.724" xml:space="preserve" color-interpolation-filters="sRGB" class="st8">
	<v:documentProperties v:langID="4096" v:metric="true" v:viewMarkup="false">
		<v:userDefs>
			<v:ud v:nameU="msvNoAutoConnect" v:val="VT0(1):26"/>
		</v:userDefs>
	</v:documentProperties>

	<style type="text/css">
	<![CDATA[
		.st1 {fill:#ffff99;stroke:#000000;stroke-linecap:round;stroke-linejoin:round;stroke-width:2.16}
		.st2 {fill:#000000;fill-opacity:1;stroke:#000000;stroke-opacity:1;stroke-width:0.46153846153846}
		.st3 {marker-end:url(#mrkr4-13);stroke:#000000;stroke-linecap:round;stroke-linejoin:round;stroke-width:1.2}
		.st4 {fill:#000000;fill-opacity:1;stroke:#000000;stroke-opacity:1;stroke-width:0.32258064516129}
		.st5 {marker-end:url(#mrkr4-24);stroke:#000000;stroke-linecap:round;stroke-linejoin:round;stroke-width:1.2}
		.st6 {fill:#000000;stroke:#003366;stroke-linecap:round;stroke-linejoin:round;stroke-width:0.72}
		.st7 {fill:#000000;stroke:none;stroke-linecap:butt;stroke-width:1}
		.st8 {fill:none;fill-rule:evenodd;font-size:12px;overflow:visible;stroke-linecap:square;stroke-miterlimit:3}
	]]>
	</style>

	<defs id="Markers">
		<g id="lend4">
			<path d="M 2 1 L 0 0 L 2 -1 L 2 1 " style="stroke:none"/>
		</g>
		<marker id="mrkr4-4" class="st2" v:arrowType="4" v:arrowSize="2" v:setback="4.33333" refX="-4.3333333333333" orient="auto"
				markerUnits="strokeWidth" overflow="visible">
			<use xlink:href="#lend4" transform="scale(-2.1666666666667,-2.1666666666667) "/>
		</marker>
		<marker id="mrkr4-13" class="st4" v:arrowType="4" v:arrowSize="2" v:setback="6.2" refX="-6.2" orient="auto"
				markerUnits="strokeWidth" overflow="visible">
			<use xlink:href="#lend4" transform="scale(-3.1,-3.1) "/>
		</marker>
		<marker id="mrkr4-24" class="st4" v:arrowType="4" v:arrowSize="2" v:setback="5.9" refX="-5.9" orient="auto"
				markerUnits="strokeWidth" overflow="visible">
			<use xlink:href="#lend4" transform="scale(-3.1,-3.1) "/>
		</marker>
	</defs>
	<g v:mID="0" v:index="1" v:groupContext="foregroundPage">
		<title>Page-1</title>
		<v:pageProperties v:drawingScale="0.0393701" v:pageScale="0.0393701" v:drawingUnits="24" v:shadowOffsetX="8.50394"
				v:shadowOffsetY="-8.50394"/>
		<g id="shape46-1" v:mID="46" v:groupContext="shape" transform="translate(49.4408,-30.8798)">
			<title>Circle.2</title>
			<v:userDefs>
				<v:ud v:nameU="visVersion" v:val="VT0(11):26"/>
			</v:userDefs>
			<path d="M0 99.38 A25.3469 25.3469 0 1 1 50.69 99.38 A25.3469 25.3469 0 0 1 0 99.38 Z" class="st1"/>
		</g>
		<g id="shape49-5" v:mID="49" v:groupContext="shape" transform="translate(158.905,-30.8798)">
			<title>Circle.11</title>
			<v:userDefs>
				<v:ud v:nameU="visVersion" v:val="VT0(11):26"/>
			</v:userDefs>
			<path d="M0 99.38 A25.3469 25.3469 0 1 1 50.69 99.38 A25.3469 25.3469 0 0 1 0 99.38 Z" class="st1"/>
		</g>
		<g id="shape50-8" v:mID="50" v:groupContext="shape" transform="translate(7.08661,-56.2267)">
			<title>Sheet.50</title>
			<path d="M0 124.72 L35.08 124.72" class="st3"/>
		</g>
		<g id="shape52-14" v:mID="52" v:groupContext="shape" transform="translate(99.5471,-56.2267)">
			<title>Sheet.52</title>
			<path d="M0 124.72 L51.92 124.72" class="st3"/>
		</g>
		<g id="shape55-19" v:mID="55" v:groupContext="shape" transform="translate(60.6875,-5.97513)">
			<title>Sheet.55</title>
			<path d="M0 95.54 A18 18 -180 1 0 31.52 102.19 L31.36 101.87" class="st5"/>
		</g>
		<g id="shape62-25" v:mID="62" v:groupContext="shape" transform="translate(71.3211,-11.2252)">
			<title>Sheet.62</title>
			<ellipse cx="3.46667" cy="121.124" rx="3.46667" ry="3.6" class="st6"/>
		</g>
		<g id="group86-27" transform="translate(71.2198,-43.937)" v:mID="86" v:groupContext="group">
			<title>Sheet.86</title>
			<g id="shape87-28" v:mID="87" v:groupContext="shape">
				<title>g0-50</title>
				<path d="M1.36 123.37 L3.23 121.55 C5.98 119.12 7.03 118.17 7.03 116.4 C7.03 114.39 5.45 112.98 3.3 112.98 C1.3 112.98
							 0 114.6 0 116.17 C0 117.16 0.88 117.16 0.93 117.16 C1.23 117.16 1.85 116.95 1.85 116.23 C1.85 115.77
							 1.53 115.31 0.92 115.31 C0.78 115.31 0.74 115.31 0.69 115.33 C1.09 114.18 2.05 113.53 3.07 113.53 C4.67
							 113.53 5.43 114.96 5.43 116.4 C5.43 117.81 4.55 119.21 3.58 120.3 L0.19 124.07 C0 124.27 0 124.3 0 124.72
							 L6.54 124.72 L7.03 121.66 L6.59 121.66 C6.51 122.19 6.38 122.96 6.21 123.23 C6.08 123.37 4.92 123.37
							 4.53 123.37 L1.36 123.37 Z" class="st7"/>
			</g>
		</g>
		<g id="shape100-30" v:mID="100" v:groupContext="shape" transform="translate(269.291,-30.8798)">
			<title>Circle.100</title>
			<v:userDefs>
				<v:ud v:nameU="visVersion" v:val="VT0(11):26"/>
			</v:userDefs>
			<path d="M0 99.38 A25.3469 25.3469 0 1 1 50.69 99.38 A25.3469 25.3469 0 0 1 0 99.38 Z" class="st1"/>
		</g>
		<g id="shape101-33" v:mID="101" v:groupContext="shape" transform="translate(377.924,-30.8798)">
			<title>Circle.101</title>
			<v:userDefs>
				<v:ud v:nameU="visVersion" v:val="VT0(11):26"/>
			</v:userDefs>
			<path d="M0 99.38 A25.3469 25.3469 0 1 1 50.69 99.38 A25.3469 25.3469 0 0 1 0 99.38 Z" class="st1"/>
		</g>
		<g id="shape104-36" v:mID="104" v:groupContext="shape" transform="translate(280.538,-5.97513)">
			<title>Sheet.104</title>
			<path d="M0 95.54 A18 18 -180 1 0 31.52 102.19 L31.36 101.87" class="st5"/>
		</g>
		<g id="shape105-41" v:mID="105" v:groupContext="shape" transform="translate(291.172,-11.2252)">
			<title>Sheet.105</title>
			<ellipse cx="3.46667" cy="121.124" rx="3.46667" ry="3.6" class="st6"/>
		</g>
		<g id="shape106-43" v:mID="106" v:groupContext="shape" transform="translate(429.95,-56.2267)">
			<title>Sheet.106</title>
			<path d="M0 124.72 L35.08 124.72" class="st3"/>
		</g>
		<g id="group111-48" transform="translate(291.07,-43.937)" v:mID="111" v:groupContext="group">
			<title>Sheet.111</title>
			<g id="shape112-49" v:mID="112" v:groupContext="shape">
				<title>g0-50</title>
				<path d="M1.36 123.37 L3.23 121.55 C5.98 119.12 7.03 118.17 7.03 116.4 C7.03 114.39 5.45 112.98 3.3 112.98 C1.3 112.98
							 0 114.6 0 116.17 C0 117.16 0.88 117.16 0.93 117.16 C1.23 117.16 1.85 116.95 1.85 116.23 C1.85 115.77
							 1.53 115.31 0.92 115.31 C0.78 115.31 0.74 115.31 0.69 115.33 C1.09 114.18 2.05 113.53 3.07 113.53 C4.67
							 113.53 5.43 114.96 5.43 116.4 C5.43 117.81 4.55 119.21 3.58 120.3 L0.19 124.07 C0 124.27 0 124.3 0 124.72
							 L6.54 124.72 L7.03 121.66 L6.59 121.66 C6.51 122.19 6.38 122.96 6.21 123.23 C6.08 123.37 4.92 123.37
							 4.53 123.37 L1.36 123.37 Z" class="st7"/>
			</g>
		</g>
		<g id="group122-51" transform="translate(62.101,-62.1056)" v:mID="122" v:groupContext="group">
			<title>Sheet.122</title>
			<g id="group123-52" v:mID="123" v:groupContext="group">
				<title>Sheet.123</title>
				<g id="shape124-53" v:mID="124" v:groupContext="shape" transform="translate(0,-2.64457)">
					<title>g0-73</title>
					<path d="M5.82 113.95 C5.96 113.39 6.06 113.23 7.28 113.23 C7.65 113.23 7.83 113.23 7.83 112.89 C7.83 112.68
								 7.65 112.68 7.58 112.68 C6.88 112.68 6.14 112.74 5.41 112.74 C4.69 112.74 3.93 112.68 3.21 112.68
								 C3.09 112.68 2.87 112.68 2.87 113 C2.87 113.23 3 113.23 3.35 113.23 C3.95 113.23 4.46 113.23 4.46
								 113.53 C4.46 113.58 4.43 113.81 4.41 113.86 L2.01 123.45 C1.87 124.04 1.71 124.18 0.53 124.18 C0.16
								 124.18 0 124.18 0 124.5 C0 124.69 0.12 124.72 0.25 124.72 C0.95 124.72 1.69 124.67 2.42 124.67 C3.14
								 124.67 3.9 124.72 4.6 124.72 C4.73 124.72 4.95 124.72 4.95 124.39 C4.95 124.18 4.81 124.18 4.46
								 124.18 C3.37 124.18 3.37 124.05 3.37 123.86 C3.37 123.84 3.37 123.74 3.44 123.47 L5.82 113.95 Z"
							class="st7"/>
				</g>
				<g id="shape125-55" v:mID="125" v:groupContext="shape" transform="translate(6.79757,-2.64457)">
					<title>Sheet.125</title>
					<path d="M5.82 113.95 C5.96 113.39 6.06 113.23 7.28 113.23 C7.65 113.23 7.83 113.23 7.83 112.89 C7.83 112.68
								 7.65 112.68 7.58 112.68 C6.88 112.68 6.14 112.74 5.41 112.74 C4.69 112.74 3.93 112.68 3.21 112.68
								 C3.09 112.68 2.87 112.68 2.87 113 C2.87 113.23 3 113.23 3.35 113.23 C3.95 113.23 4.46 113.23 4.46
								 113.53 C4.46 113.58 4.43 113.81 4.41 113.86 L2.01 123.45 C1.87 124.04 1.71 124.18 0.53 124.18 C0.16
								 124.18 0 124.18 0 124.5 C0 124.69 0.12 124.72 0.25 124.72 C0.95 124.72 1.69 124.67 2.42 124.67 C3.14
								 124.67 3.9 124.72 4.6 124.72 C4.73 124.72 4.95 124.72 4.95 124.39 C4.95 124.18 4.81 124.18 4.46
								 124.18 C3.37 124.18 3.37 124.05 3.37 123.86 C3.37 123.84 3.37 123.74 3.44 123.47 L5.82 113.95 Z"
							class="st7"/>
				</g>
				<g id="shape126-57" v:mID="126" v:groupContext="shape" transform="translate(16.0803,1.42109E-14)">
					<title>g1-65</title>
					<path d="M1.84 123.24 C1.41 123.91 1.01 124.23 0.28 124.28 C0.16 124.29 0 124.29 0 124.54 C0 124.68 0.11 124.72
								 0.17 124.72 C0.49 124.72 0.9 124.68 1.23 124.68 C1.63 124.68 2.14 124.72 2.51 124.72 C2.57 124.72
								 2.75 124.72 2.75 124.45 C2.75 124.29 2.59 124.28 2.54 124.28 C2.44 124.27 2 124.24 2 123.91 C2 123.76
								 2.12 123.55 2.18 123.44 L3.17 121.91 L6.7 121.91 L7 123.96 C6.95 124.08 6.87 124.28 6.15 124.28
								 C6 124.28 5.83 124.28 5.83 124.55 C5.83 124.6 5.86 124.72 6.02 124.72 C6.38 124.72 7.26 124.68 7.61
								 124.68 C7.84 124.68 8.12 124.69 8.34 124.69 C8.56 124.7 8.82 124.72 9.05 124.72 C9.21 124.72 9.29
								 124.63 9.29 124.47 C9.29 124.28 9.15 124.28 8.95 124.28 C8.23 124.28 8.21 124.18 8.17 123.89 L7.08
								 116.27 C7.05 116.01 7.02 115.92 6.79 115.92 C6.55 115.92 6.48 116.04 6.37 116.21 L1.84 123.24 ZM3.47
								 121.47 L6.06 117.43 L6.64 121.47 L3.47 121.47 Z" class="st7"/>
				</g>
			</g>
		</g>
		<g id="group127-59" transform="translate(174.271,-62.1056)" v:mID="127" v:groupContext="group">
			<title>Sheet.127</title>
			<g id="group128-60" v:mID="128" v:groupContext="group">
				<title>Sheet.128</title>
				<g id="shape129-61" v:mID="129" v:groupContext="shape" transform="translate(0,-2.64457)">
					<title>g0-76</title>
					<path d="M5.71 114.02 C5.87 113.41 5.98 113.23 7.4 113.23 L7.58 113.23 C7.88 113.23 8.07 113.23 8.07 112.89 C8.07
								 112.68 7.88 112.68 7.81 112.68 C7.02 112.68 6.19 112.74 5.38 112.74 C4.65 112.74 3.91 112.68 3.21
								 112.68 C3.1 112.68 2.87 112.68 2.87 113.02 C2.87 113.23 3.01 113.23 3.35 113.23 C3.9 113.23 4.37
								 113.23 4.37 113.53 C4.37 113.58 4.37 113.62 4.3 113.86 L1.92 123.44 C1.78 124.04 1.67 124.18 0.48
								 124.18 C0.19 124.18 0 124.18 0 124.51 C0 124.72 0.16 124.72 0.44 124.72 L7.99 124.72 C8.37 124.72
								 8.39 124.71 8.5 124.41 L9.84 120.62 C9.84 120.6 9.91 120.4 9.91 120.39 C9.91 120.18 9.7 120.18 9.64
								 120.18 C9.43 120.18 9.41 120.23 9.29 120.56 C8.73 122.13 7.97 124.18 5.22 124.18 L3.79 124.18 C3.24
								 124.18 3.24 124.12 3.24 124 C3.24 123.9 3.3 123.72 3.31 123.61 L5.71 114.02 Z" class="st7"/>
				</g>
				<g id="shape130-63" v:mID="130" v:groupContext="shape" transform="translate(10.6686,1.42109E-14)">
					<title>g1-65</title>
					<path d="M1.84 123.24 C1.41 123.91 1.01 124.23 0.28 124.28 C0.16 124.29 0 124.29 0 124.54 C0 124.68 0.11 124.72
								 0.17 124.72 C0.49 124.72 0.9 124.68 1.23 124.68 C1.63 124.68 2.14 124.72 2.51 124.72 C2.57 124.72
								 2.75 124.72 2.75 124.45 C2.75 124.29 2.59 124.28 2.54 124.28 C2.44 124.27 2 124.24 2 123.91 C2 123.76
								 2.12 123.55 2.18 123.44 L3.17 121.91 L6.7 121.91 L7 123.96 C6.95 124.08 6.87 124.28 6.15 124.28
								 C6 124.28 5.83 124.28 5.83 124.55 C5.83 124.6 5.86 124.72 6.02 124.72 C6.38 124.72 7.26 124.68 7.61
								 124.68 C7.84 124.68 8.12 124.69 8.34 124.69 C8.56 124.7 8.82 124.72 9.05 124.72 C9.21 124.72 9.29
								 124.63 9.29 124.47 C9.29 124.28 9.15 124.28 8.95 124.28 C8.23 124.28 8.21 124.18 8.17 123.89 L7.08
								 116.27 C7.05 116.01 7.02 115.92 6.79 115.92 C6.55 115.92 6.48 116.04 6.37 116.21 L1.84 123.24 ZM3.47
								 121.47 L6.06 117.43 L6.64 121.47 L3.47 121.47 Z" class="st7"/>
				</g>
			</g>
		</g>
		<g id="group131-65" transform="translate(281.785,-62.1056)" v:mID="131" v:groupContext="group">
			<title>Sheet.131</title>
			<g id="group132-66" v:mID="132" v:groupContext="group">
				<title>Sheet.132</title>
				<g id="shape133-67" v:mID="133" v:groupContext="shape" transform="translate(1.28897E-13,-2.64457)">
					<title>g0-73</title>
					<path d="M5.82 113.95 C5.96 113.39 6.06 113.23 7.28 113.23 C7.65 113.23 7.83 113.23 7.83 112.89 C7.83 112.68
								 7.65 112.68 7.58 112.68 C6.88 112.68 6.14 112.74 5.41 112.74 C4.69 112.74 3.93 112.68 3.21 112.68
								 C3.09 112.68 2.87 112.68 2.87 113 C2.87 113.23 3 113.23 3.35 113.23 C3.95 113.23 4.46 113.23 4.46
								 113.53 C4.46 113.58 4.43 113.81 4.41 113.86 L2.01 123.45 C1.87 124.04 1.71 124.18 0.53 124.18 C0.16
								 124.18 0 124.18 0 124.5 C0 124.69 0.12 124.72 0.25 124.72 C0.95 124.72 1.69 124.67 2.42 124.67 C3.14
								 124.67 3.9 124.72 4.6 124.72 C4.73 124.72 4.95 124.72 4.95 124.39 C4.95 124.18 4.81 124.18 4.46
								 124.18 C3.37 124.18 3.37 124.05 3.37 123.86 C3.37 123.84 3.37 123.74 3.44 123.47 L5.82 113.95 Z"
							class="st7"/>
				</g>
				<g id="shape134-69" v:mID="134" v:groupContext="shape" transform="translate(6.79756,-2.64457)">
					<title>Sheet.134</title>
					<path d="M5.82 113.95 C5.96 113.39 6.06 113.23 7.28 113.23 C7.65 113.23 7.83 113.23 7.83 112.89 C7.83 112.68
								 7.65 112.68 7.58 112.68 C6.88 112.68 6.14 112.74 5.41 112.74 C4.69 112.74 3.93 112.68 3.21 112.68
								 C3.09 112.68 2.87 112.68 2.87 113 C2.87 113.23 3 113.23 3.35 113.23 C3.95 113.23 4.46 113.23 4.46
								 113.53 C4.46 113.58 4.43 113.81 4.41 113.86 L2.01 123.45 C1.87 124.04 1.71 124.18 0.53 124.18 C0.16
								 124.18 0 124.18 0 124.5 C0 124.69 0.12 124.72 0.25 124.72 C0.95 124.72 1.69 124.67 2.42 124.67 C3.14
								 124.67 3.9 124.72 4.6 124.72 C4.73 124.72 4.95 124.72 4.95 124.39 C4.95 124.18 4.81 124.18 4.46
								 124.18 C3.37 124.18 3.37 124.05 3.37 123.86 C3.37 123.84 3.37 123.74 3.44 123.47 L5.82 113.95 Z"
							class="st7"/>
				</g>
				<g id="shape135-71" v:mID="135" v:groupContext="shape" transform="translate(16.2654,8.52651E-14)">
					<title>g1-66</title>
					<path d="M1.46 123.76 C1.35 124.18 1.32 124.28 0.37 124.28 C0.16 124.28 0 124.28 0 124.54 C0 124.72 0.15 124.72
								 0.37 124.72 L5.15 124.72 C7.22 124.72 8.81 123.31 8.81 122.08 C8.81 121.21 8.01 120.45 6.7 120.32
								 C8.19 120.05 9.44 119.11 9.44 118.05 C9.44 117.11 8.49 116.3 6.89 116.3 L2.39 116.3 C2.16 116.3
								 2 116.3 2 116.57 C2 116.74 2.15 116.74 2.39 116.74 C2.41 116.74 2.64 116.74 2.86 116.76 C3.12 116.79
								 3.15 116.81 3.15 116.94 C3.15 116.96 3.15 117.02 3.1 117.21 L1.46 123.76 ZM3.43 120.17 L4.18 117.16
								 C4.28 116.78 4.29 116.74 4.81 116.74 L6.69 116.74 C7.95 116.74 8.23 117.57 8.23 118.04 C8.23 119.03
								 7.11 120.17 5.45 120.17 L3.43 120.17 ZM2.84 124.28 C2.46 124.28 2.44 124.27 2.44 124.16 C2.44 124.14
								 2.44 124.08 2.49 123.9 L3.34 120.52 L5.96 120.52 C7.12 120.52 7.57 121.28 7.57 122 C7.57 123.22
								 6.32 124.28 4.83 124.28 L2.84 124.28 Z" class="st7"/>
				</g>
			</g>
		</g>
		<g id="group136-73" transform="translate(393.123,-62.1056)" v:mID="136" v:groupContext="group">
			<title>Sheet.136</title>
			<g id="group137-74" v:mID="137" v:groupContext="group">
				<title>Sheet.137</title>
				<g id="shape138-75" v:mID="138" v:groupContext="shape" transform="translate(0,-2.64457)">
					<title>g0-76</title>
					<path d="M5.71 114.02 C5.87 113.41 5.98 113.23 7.4 113.23 L7.58 113.23 C7.88 113.23 8.07 113.23 8.07 112.89 C8.07
								 112.68 7.88 112.68 7.81 112.68 C7.02 112.68 6.19 112.74 5.38 112.74 C4.65 112.74 3.91 112.68 3.21
								 112.68 C3.1 112.68 2.87 112.68 2.87 113.02 C2.87 113.23 3.01 113.23 3.35 113.23 C3.9 113.23 4.37
								 113.23 4.37 113.53 C4.37 113.58 4.37 113.62 4.3 113.86 L1.92 123.44 C1.78 124.04 1.67 124.18 0.48
								 124.18 C0.19 124.18 0 124.18 0 124.51 C0 124.72 0.16 124.72 0.44 124.72 L7.99 124.72 C8.37 124.72
								 8.39 124.71 8.5 124.41 L9.84 120.62 C9.84 120.6 9.91 120.4 9.91 120.39 C9.91 120.18 9.7 120.18 9.64
								 120.18 C9.43 120.18 9.41 120.23 9.29 120.56 C8.73 122.13 7.97 124.18 5.22 124.18 L3.79 124.18 C3.24
								 124.18 3.24 124.12 3.24 124 C3.24 123.9 3.3 123.72 3.31 123.61 L5.71 114.02 Z" class="st7"/>
				</g>
				<g id="shape139-77" v:mID="139" v:groupContext="shape" transform="translate(10.8538,8.52651E-14)">
					<title>g1-66</title>
					<path d="M1.46 123.76 C1.35 124.18 1.32 124.28 0.37 124.28 C0.16 124.28 0 124.28 0 124.54 C0 124.72 0.15 124.72
								 0.37 124.72 L5.15 124.72 C7.22 124.72 8.81 123.31 8.81 122.08 C8.81 121.21 8.01 120.45 6.7 120.32
								 C8.19 120.05 9.44 119.11 9.44 118.05 C9.44 117.11 8.49 116.3 6.89 116.3 L2.39 116.3 C2.16 116.3
								 2 116.3 2 116.57 C2 116.74 2.15 116.74 2.39 116.74 C2.41 116.74 2.64 116.74 2.86 116.76 C3.12 116.79
								 3.15 116.81 3.15 116.94 C3.15 116.96 3.15 117.02 3.1 117.21 L1.46 123.76 ZM3.43 120.17 L4.18 117.16
								 C4.28 116.78 4.29 116.74 4.81 116.74 L6.69 116.74 C7.95 116.74 8.23 117.57 8.23 118.04 C8.23 119.03
								 7.11 120.17 5.45 120.17 L3.43 120.17 ZM2.84 124.28 C2.46 124.28 2.44 124.27 2.44 124.16 C2.44 124.14
								 2.44 124.08 2.49 123.9 L3.34 120.52 L5.96 120.52 C7.12 120.52 7.57 121.28 7.57 122 C7.57 123.22
								 6.32 124.28 4.83 124.28 L2.84 124.28 Z" class="st7"/>
				</g>
			</g>
		</g>
		<g id="shape141-79" v:mID="141" v:groupContext="shape" transform="translate(209.933,-56.2267)">
			<title>Sheet.141</title>
			<path d="M0 124.72 L51.92 124.72" class="st3"/>
		</g>
		<g id="shape142-84" v:mID="142" v:groupContext="shape" transform="translate(318.898,-56.2267)">
			<title>Sheet.142</title>
			<path d="M0 124.72 L51.92 124.72" class="st3"/>
		</g>
		<g id="group152-89" transform="translate(449.77,-65.4555)" v:mID="152" v:groupContext="group">
			<title>Sheet.152</title>
			<g id="shape153-90" v:mID="153" v:groupContext="shape">
				<title>g0-111</title>
				<path d="M7.55 119.72 C7.55 117.88 6.31 116.74 4.73 116.74 C2.36 116.74 0 119.24 0 121.74 C0 123.49 1.18 124.72 2.82
							 124.72 C5.17 124.72 7.55 122.29 7.55 119.72 ZM2.84 124.34 C2.08 124.34 1.3 123.79 1.3 122.41 C1.3 121.55
							 1.76 119.65 2.33 118.75 C3.21 117.39 4.21 117.13 4.71 117.13 C5.73 117.13 6.26 117.97 6.26 119.03 C6.26
							 119.72 5.91 121.57 5.24 122.71 C4.62 123.74 3.65 124.34 2.84 124.34 Z" class="st7"/>
			</g>
		</g>
		<g id="shape155-92" v:mID="155" v:groupContext="shape" transform="translate(219.838,-113.272)">
			<title>Sheet.155</title>
			<ellipse cx="3.46667" cy="121.124" rx="3.46667" ry="3.6" class="st6"/>
		</g>
		<g id="group158-94" transform="translate(233.928,-111.051)" v:mID="158" v:groupContext="group">
			<title>Sheet.158</title>
			<g id="shape159-95" v:mID="159" v:groupContext="shape">
				<title>g0-98</title>
				<path d="M3.39 112.49 C3.39 112.47 3.39 112.29 3.16 112.29 C2.75 112.29 1.46 112.44 1 112.47 C0.86 112.49 0.67 112.51
							 0.67 112.82 C0.67 113.04 0.83 113.04 1.09 113.04 C1.94 113.04 1.97 113.16 1.97 113.33 C1.97 113.46 1.82
							 114.06 1.73 114.43 L0.28 120.18 C0.07 121.06 0 121.34 0 121.96 C0 123.63 0.93 124.72 2.24 124.72 C4.32
							 124.72 6.49 122.1 6.49 119.56 C6.49 117.95 5.55 116.74 4.14 116.74 C3.33 116.74 2.61 117.25 2.08 117.8
							 L3.39 112.49 ZM1.73 119.15 C1.83 118.77 1.83 118.73 1.99 118.54 C2.86 117.39 3.65 117.13 4.11 117.13
							 C4.74 117.13 5.22 117.65 5.22 118.78 C5.22 119.82 4.64 121.85 4.32 122.52 C3.74 123.7 2.93 124.34 2.24
							 124.34 C1.64 124.34 1.06 123.86 1.06 122.56 C1.06 122.22 1.06 121.89 1.34 120.78 L1.73 119.15 Z"
						class="st7"/>
			</g>
		</g>
		<g id="shape167-97" v:mID="167" v:groupContext="shape" transform="translate(381.831,143.246) rotate(-179.959)">
			<title>Sheet.167</title>
			<path d="M0 87.83 A294.368 294.368 -145.29 0 0 278.81 91.36 L279.12 91.19" class="st5"/>
		</g>
		<g id="group170-102" transform="translate(179.551,-43.84)" v:mID="170" v:groupContext="group">
			<title>Sheet.170</title>
			<g id="shape171-103" v:mID="171" v:groupContext="shape">
				<title>g0-52</title>
				<path d="M4.69 121.82 L4.69 123.35 C4.69 123.98 4.65 124.18 3.35 124.18 L2.98 124.18 L2.98 124.72 C3.7 124.67 4.62
							 124.67 5.36 124.67 C6.1 124.67 7.03 124.67 7.76 124.72 L7.76 124.18 L7.39 124.18 C6.08 124.18 6.05 123.98
							 6.05 123.35 L6.05 121.82 L7.81 121.82 L7.81 121.27 L6.05 121.27 L6.05 113.25 C6.05 112.89 6.05 112.79
							 5.77 112.79 C5.61 112.79 5.55 112.79 5.41 113 L0 121.27 L0 121.82 L4.69 121.82 ZM4.8 121.27 L0.49 121.27
							 L4.8 114.69 L4.8 121.27 Z" class="st7"/>
			</g>
		</g>
		<g id="group175-105" transform="translate(400.42,-43.937)" v:mID="175" v:groupContext="group">
			<title>Sheet.175</title>
			<g id="shape176-106" v:mID="176" v:groupContext="shape">
				<title>g0-50</title>
				<path d="M1.36 123.37 L3.23 121.55 C5.98 119.12 7.03 118.17 7.03 116.4 C7.03 114.39 5.45 112.98 3.3 112.98 C1.3 112.98
							 0 114.6 0 116.17 C0 117.16 0.88 117.16 0.93 117.16 C1.23 117.16 1.85 116.95 1.85 116.23 C1.85 115.77
							 1.53 115.31 0.92 115.31 C0.78 115.31 0.74 115.31 0.69 115.33 C1.09 114.18 2.05 113.53 3.07 113.53 C4.67
							 113.53 5.43 114.96 5.43 116.4 C5.43 117.81 4.55 119.21 3.58 120.3 L0.19 124.07 C0 124.27 0 124.3 0 124.72
							 L6.54 124.72 L7.03 121.66 L6.59 121.66 C6.51 122.19 6.38 122.96 6.21 123.23 C6.08 123.37 4.92 123.37
							 4.53 123.37 L1.36 123.37 Z" class="st7"/>
			</g>
		</g>
		<g id="group177-108" transform="translate(14.9667,-62.2996)" v:mID="177" v:groupContext="group">
			<title>Sheet.177</title>
			<g id="group178-109" v:mID="178" v:groupContext="group">
				<title>Sheet.178</title>
				<g id="shape179-110" v:mID="179" v:groupContext="shape" transform="translate(0,-2.45064)">
					<title>g0-105</title>
					<path d="M4.5 113.51 C4.5 113.16 4.25 112.88 3.84 112.88 C3.37 112.88 2.89 113.33 2.89 113.81 C2.89 114.15 3.14
								 114.45 3.56 114.45 C3.97 114.45 4.5 114.04 4.5 113.51 ZM3.16 120.14 C3.37 119.63 3.37 119.59 3.54
								 119.12 C3.68 118.77 3.77 118.52 3.77 118.18 C3.77 117.39 3.21 116.74 2.33 116.74 C0.67 116.74 0
								 119.29 0 119.45 C0 119.63 0.18 119.63 0.21 119.63 C0.39 119.63 0.41 119.59 0.49 119.31 C0.97 117.65
								 1.67 117.13 2.27 117.13 C2.42 117.13 2.72 117.13 2.72 117.69 C2.72 118.06 2.59 118.43 2.52 118.61
								 C2.38 119.06 1.59 121.11 1.3 121.87 C1.13 122.33 0.9 122.91 0.9 123.28 C0.9 124.11 1.5 124.72 2.34
								 124.72 C4 124.72 4.65 122.17 4.65 122.01 C4.65 121.83 4.5 121.83 4.44 121.83 C4.27 121.83 4.27 121.89
								 4.18 122.15 C3.86 123.26 3.28 124.34 2.38 124.34 C2.08 124.34 1.96 124.16 1.96 123.75 C1.96 123.31
								 2.06 123.07 2.47 121.99 L3.16 120.14 Z" class="st7"/>
				</g>
				<g id="shape180-112" v:mID="180" v:groupContext="shape" transform="translate(6.26617,1.42109E-14)">
					<title>g1-65</title>
					<path d="M1.84 123.24 C1.41 123.91 1.01 124.23 0.28 124.28 C0.16 124.29 0 124.29 0 124.54 C0 124.68 0.11 124.72
								 0.17 124.72 C0.49 124.72 0.9 124.68 1.23 124.68 C1.63 124.68 2.14 124.72 2.51 124.72 C2.57 124.72
								 2.75 124.72 2.75 124.45 C2.75 124.29 2.59 124.28 2.54 124.28 C2.44 124.27 2 124.24 2 123.91 C2 123.76
								 2.12 123.55 2.18 123.44 L3.17 121.91 L6.7 121.91 L7 123.96 C6.95 124.08 6.87 124.28 6.15 124.28
								 C6 124.28 5.83 124.28 5.83 124.55 C5.83 124.6 5.86 124.72 6.02 124.72 C6.38 124.72 7.26 124.68 7.61
								 124.68 C7.84 124.68 8.12 124.69 8.34 124.69 C8.56 124.7 8.82 124.72 9.05 124.72 C9.21 124.72 9.29
								 124.63 9.29 124.47 C9.29 124.28 9.15 124.28 8.95 124.28 C8.23 124.28 8.21 124.18 8.17 123.89 L7.08
								 116.27 C7.05 116.01 7.02 115.92 6.79 115.92 C6.55 115.92 6.48 116.04 6.37 116.21 L1.84 123.24 ZM3.47
								 121.47 L6.06 117.43 L6.64 121.47 L3.47 121.47 Z" class="st7"/>
				</g>
			</g>
		</g>
		<g id="shape181-114" v:mID="181" v:groupContext="shape" transform="translate(151.301,13.3316) rotate(-33.2492)">
			<title>Sheet.181</title>
			<path d="M0 124.72 L56.84 124.72" class="st3"/>
		</g>
		<g id="group187-119" transform="translate(197.566,-7.67596)" v:mID="187" v:groupContext="group">
			<title>Sheet.187</title>
			<g id="group188-120" v:mID="188" v:groupContext="group">
				<title>Sheet.188</title>
				<g id="shape189-121" v:mID="189" v:groupContext="shape" transform="translate(-7.94365E-14,-2.45064)">
					<title>g0-105</title>
					<path d="M4.5 113.51 C4.5 113.16 4.25 112.88 3.84 112.88 C3.37 112.88 2.89 113.33 2.89 113.81 C2.89 114.15 3.14
								 114.45 3.56 114.45 C3.97 114.45 4.5 114.04 4.5 113.51 ZM3.16 120.14 C3.37 119.63 3.37 119.59 3.54
								 119.12 C3.68 118.77 3.77 118.52 3.77 118.18 C3.77 117.39 3.21 116.74 2.33 116.74 C0.67 116.74 0
								 119.29 0 119.45 C0 119.63 0.18 119.63 0.21 119.63 C0.39 119.63 0.41 119.59 0.49 119.31 C0.97 117.65
								 1.67 117.13 2.27 117.13 C2.42 117.13 2.72 117.13 2.72 117.69 C2.72 118.06 2.59 118.43 2.52 118.61
								 C2.38 119.06 1.59 121.11 1.3 121.87 C1.13 122.33 0.9 122.91 0.9 123.28 C0.9 124.11 1.5 124.72 2.34
								 124.72 C4 124.72 4.65 122.17 4.65 122.01 C4.65 121.83 4.5 121.83 4.44 121.83 C4.27 121.83 4.27 121.89
								 4.18 122.15 C3.86 123.26 3.28 124.34 2.38 124.34 C2.08 124.34 1.96 124.16 1.96 123.75 C1.96 123.31
								 2.06 123.07 2.47 121.99 L3.16 120.14 Z" class="st7"/>
				</g>
				<g id="shape190-123" v:mID="190" v:groupContext="shape" transform="translate(6.45129,1.42109E-14)">
					<title>g1-66</title>
					<path d="M1.46 123.76 C1.35 124.18 1.32 124.28 0.37 124.28 C0.16 124.28 0 124.28 0 124.54 C0 124.72 0.15 124.72
								 0.37 124.72 L5.15 124.72 C7.22 124.72 8.81 123.31 8.81 122.08 C8.81 121.21 8.01 120.45 6.7 120.32
								 C8.19 120.05 9.44 119.11 9.44 118.05 C9.44 117.11 8.49 116.3 6.89 116.3 L2.39 116.3 C2.16 116.3
								 2 116.3 2 116.57 C2 116.74 2.15 116.74 2.39 116.74 C2.41 116.74 2.64 116.74 2.86 116.76 C3.12 116.79
								 3.15 116.81 3.15 116.94 C3.15 116.96 3.15 117.02 3.1 117.21 L1.46 123.76 ZM3.43 120.17 L4.18 117.16
								 C4.28 116.78 4.29 116.74 4.81 116.74 L6.69 116.74 C7.95 116.74 8.23 117.57 8.23 118.04 C8.23 119.03
								 7.11 120.17 5.45 120.17 L3.43 120.17 ZM2.84 124.28 C2.46 124.28 2.44 124.27 2.44 124.16 C2.44 124.14
								 2.44 124.08 2.49 123.9 L3.34 120.52 L5.96 120.52 C7.12 120.52 7.57 121.28 7.57 122 C7.57 123.22
								 6.32 124.28 4.83 124.28 L2.84 124.28 Z" class="st7"/>
				</g>
			</g>
		</g>
	</g>
</svg>
