<?xml version="1.0" encoding="utf-8" ?>
<svg baseProfile="full" height="44.1665mm" version="1.1" viewBox="-10.83740234375,-5.5,178.83740234375,44.1665" width="178.83740234375mm" xmlns="http://www.w3.org/2000/svg" xmlns:ev="http://www.w3.org/2001/xml-events" xmlns:xlink="http://www.w3.org/1999/xlink"><defs><marker id="arrow" markerHeight="6" markerUnits="strokeWidth" markerWidth="6" orient="auto" refX="9" refY="3"><path d="M0,0 L0,6 L9,3 z" fill="#f00" /></marker></defs><rect fill="rgb(255,255,255)" height="36.6665" stroke="rgb(0,0,0)" stroke-width="0.0" width="168.0" x="0.0" y="0.0" /><rect fill="rgb(240,240,240)" height="5.0" stroke="rgb(0,0,0)" stroke-width="0.0" width="168.0" x="0.0" y="5.0" /><rect fill="rgb(240,240,240)" height="6.666499999999997" stroke="rgb(0,0,0)" stroke-width="0.0" width="168.0" x="0.0" y="15.0" /><rect fill="rgb(240,240,240)" height="5.0" stroke="rgb(0,0,0)" stroke-width="0.0" width="168.0" x="0.0" y="26.6665" /><line stroke="rgb(0,0,0)" stroke-width="0.25" x1="0.0" x2="0.0" y1="0.0" y2="-1.5" /><line stroke="rgb(0,0,0)" stroke-width="0.25" x1="0.0" x2="0.0" y1="0.0" y2="36.6665" /><text alignment-baseline="auto" fill="rgb(0,0,0)" font-family="Calibri, Arial" font-size="5.0" text-anchor="middle" x="0.0" y="-2.0">0</text><line stroke="rgb(0,0,0)" stroke-width="0.25" x1="25.0" x2="25.0" y1="0.0" y2="-1.5" /><line stroke="rgb(0,0,0)" stroke-width="0.25" x1="25.0" x2="25.0" y1="0.0" y2="36.6665" /><text alignment-baseline="auto" fill="rgb(0,0,0)" font-family="Calibri, Arial" font-size="5.0" text-anchor="middle" x="25.0" y="-2.0">5</text><line stroke="rgb(0,0,0)" stroke-width="0.25" x1="50.0" x2="50.0" y1="0.0" y2="-1.5" /><line stroke="rgb(0,0,0)" stroke-width="0.25" x1="50.0" x2="50.0" y1="0.0" y2="36.6665" /><text alignment-baseline="auto" fill="rgb(0,0,0)" font-family="Calibri, Arial" font-size="5.0" text-anchor="middle" x="50.0" y="-2.0">10</text><line stroke="rgb(0,0,0)" stroke-width="0.25" x1="75.0" x2="75.0" y1="0.0" y2="-1.5" /><line stroke="rgb(0,0,0)" stroke-width="0.25" x1="75.0" x2="75.0" y1="0.0" y2="36.6665" /><text alignment-baseline="auto" fill="rgb(0,0,0)" font-family="Calibri, Arial" font-size="5.0" text-anchor="middle" x="75.0" y="-2.0">15</text><line stroke="rgb(0,0,0)" stroke-width="0.25" x1="100.0" x2="100.0" y1="0.0" y2="-1.5" /><line stroke="rgb(0,0,0)" stroke-width="0.25" x1="100.0" x2="100.0" y1="0.0" y2="36.6665" /><text alignment-baseline="auto" fill="rgb(0,0,0)" font-family="Calibri, Arial" font-size="5.0" text-anchor="middle" x="100.0" y="-2.0">20</text><line stroke="rgb(0,0,0)" stroke-width="0.25" x1="125.0" x2="125.0" y1="0.0" y2="-1.5" /><line stroke="rgb(0,0,0)" stroke-width="0.25" x1="125.0" x2="125.0" y1="0.0" y2="36.6665" /><text alignment-baseline="auto" fill="rgb(0,0,0)" font-family="Calibri, Arial" font-size="5.0" text-anchor="middle" x="125.0" y="-2.0">25</text><line stroke="rgb(0,0,0)" stroke-width="0.25" x1="150.0" x2="150.0" y1="0.0" y2="-1.5" /><line stroke="rgb(0,0,0)" stroke-width="0.25" x1="150.0" x2="150.0" y1="0.0" y2="36.6665" /><text alignment-baseline="auto" fill="rgb(0,0,0)" font-family="Calibri, Arial" font-size="5.0" text-anchor="middle" x="150.0" y="-2.0">30</text><text alignment-baseline="auto" fill="rgb(0,0,0)" font-family="Calibri, Arial" font-size="5.0" text-anchor="end" x="-2.5" y="13.75">IIA</text><rect fill="rgb(251,180,174)" height="5.0" stroke="rgb(0,0,0)" stroke-width="0" width="10.0" x="0.0" y="10.0" /><rect fill="rgb(225,162,156)" height="5.0" stroke="rgb(0,0,0)" stroke-width="0" width="10.0" x="10.0" y="10.0" /><rect fill="rgb(251,180,174)" height="5.0" stroke="rgb(0,0,0)" stroke-width="0" width="10.0" x="20.0" y="10.0" /><rect fill="rgb(225,162,156)" height="5.0" stroke="rgb(0,0,0)" stroke-width="0" width="10.0" x="50.0" y="10.0" /><rect fill="rgb(251,180,174)" height="5.0" stroke="rgb(0,0,0)" stroke-width="0" width="10.0" x="60.0" y="10.0" /><rect fill="rgb(225,162,156)" height="5.0" stroke="rgb(0,0,0)" stroke-width="0" width="10.0" x="80.0" y="10.0" /><rect fill="rgb(251,180,174)" height="5.0" stroke="rgb(0,0,0)" stroke-width="0" width="10.0" x="90.0" y="10.0" /><rect fill="rgb(225,162,156)" height="5.0" stroke="rgb(0,0,0)" stroke-width="0" width="10.0" x="100.0" y="10.0" /><rect fill="rgb(251,180,174)" height="5.0" stroke="rgb(0,0,0)" stroke-width="0" width="10.0" x="110.0" y="10.0" /><text alignment-baseline="auto" fill="rgb(0,0,0)" font-family="Calibri, Arial" font-size="5.0" text-anchor="end" x="-2.5" y="19.58325">LA</text><rect fill="rgb(179,205,227)" height="5.0" stroke="rgb(0,0,0)" stroke-width="0" width="20.0" x="10.0" y="15.0" /><rect fill="rgb(161,184,204)" height="5.0" stroke="rgb(0,0,0)" stroke-width="0" width="20.0" x="20.0" y="16.6665" /><rect fill="rgb(179,205,227)" height="5.0" stroke="rgb(0,0,0)" stroke-width="0" width="20.0" x="30.0" y="15.0" /><rect fill="rgb(161,184,204)" height="5.0" stroke="rgb(0,0,0)" stroke-width="0" width="20.0" x="60.0" y="15.0" /><rect fill="rgb(179,205,227)" height="5.0" stroke="rgb(0,0,0)" stroke-width="0" width="20.0" x="70.0" y="16.6665" /><rect fill="rgb(161,184,204)" height="5.0" stroke="rgb(0,0,0)" stroke-width="0" width="20.0" x="90.0" y="15.0" /><rect fill="rgb(179,205,227)" height="5.0" stroke="rgb(0,0,0)" stroke-width="0" width="20.0" x="100.0" y="16.6665" /><rect fill="rgb(161,184,204)" height="5.0" stroke="rgb(0,0,0)" stroke-width="0" width="20.0" x="110.0" y="15.0" /><rect fill="rgb(179,205,227)" height="5.0" stroke="rgb(0,0,0)" stroke-width="0" width="20.0" x="120.0" y="16.6665" /><text alignment-baseline="auto" fill="rgb(0,0,0)" font-family="Calibri, Arial" font-size="5.0" text-anchor="end" x="-2.5" y="25.4165">IIB</text><rect fill="rgb(204,235,197)" height="5.0" stroke="rgb(0,0,0)" stroke-width="0" width="10.0" x="30.0" y="21.6665" /><rect fill="rgb(183,211,177)" height="5.0" stroke="rgb(0,0,0)" stroke-width="0" width="10.0" x="40.0" y="21.6665" /><rect fill="rgb(204,235,197)" height="5.0" stroke="rgb(0,0,0)" stroke-width="0" width="10.0" x="50.0" y="21.6665" /><rect fill="rgb(183,211,177)" height="5.0" stroke="rgb(0,0,0)" stroke-width="0" width="10.0" x="80.0" y="21.6665" /><rect fill="rgb(204,235,197)" height="5.0" stroke="rgb(0,0,0)" stroke-width="0" width="10.0" x="90.0" y="21.6665" /><rect fill="rgb(183,211,177)" height="5.0" stroke="rgb(0,0,0)" stroke-width="0" width="10.0" x="110.0" y="21.6665" /><rect fill="rgb(204,235,197)" height="5.0" stroke="rgb(0,0,0)" stroke-width="0" width="10.0" x="120.0" y="21.6665" /><rect fill="rgb(183,211,177)" height="5.0" stroke="rgb(0,0,0)" stroke-width="0" width="10.0" x="130.0" y="21.6665" /><rect fill="rgb(204,235,197)" height="5.0" stroke="rgb(0,0,0)" stroke-width="0" width="10.0" x="140.0" y="21.6665" /><text alignment-baseline="auto" fill="rgb(0,0,0)" font-family="Calibri, Arial" font-size="5.0" text-anchor="end" x="-2.5" y="30.4165">LB</text><rect fill="rgb(222,203,228)" height="5.0" stroke="rgb(0,0,0)" stroke-width="0" width="10.0" x="40.0" y="26.6665" /><rect fill="rgb(199,182,205)" height="5.0" stroke="rgb(0,0,0)" stroke-width="0" width="10.0" x="50.0" y="26.6665" /><rect fill="rgb(222,203,228)" height="5.0" stroke="rgb(0,0,0)" stroke-width="0" width="10.0" x="60.0" y="26.6665" /><rect fill="rgb(199,182,205)" height="5.0" stroke="rgb(0,0,0)" stroke-width="0" width="10.0" x="90.0" y="26.6665" /><rect fill="rgb(222,203,228)" height="5.0" stroke="rgb(0,0,0)" stroke-width="0" width="10.0" x="100.0" y="26.6665" /><rect fill="rgb(199,182,205)" height="5.0" stroke="rgb(0,0,0)" stroke-width="0" width="10.0" x="120.0" y="26.6665" /><rect fill="rgb(222,203,228)" height="5.0" stroke="rgb(0,0,0)" stroke-width="0" width="10.0" x="130.0" y="26.6665" /><rect fill="rgb(199,182,205)" height="5.0" stroke="rgb(0,0,0)" stroke-width="0" width="10.0" x="140.0" y="26.6665" /><rect fill="rgb(222,203,228)" height="5.0" stroke="rgb(0,0,0)" stroke-width="0" width="10.0" x="150.0" y="26.6665" /><line stroke="rgb(0,0,0)" stroke-width="0.4" x1="0.0" x2="0.0" y1="-0.2" y2="36.8665" /><text alignment-baseline="auto" fill="rgb(0,0,0)" font-family="Calibri, Arial" font-size="5.0" text-anchor="end" x="-2.5" y="3.75">ia</text><circle cx="0.0" cy="2.5" fill="rgb(0,0,0)" r="1.75" stroke="rgb(0,0,0)" stroke-width="0.0" /><circle cx="10.0" cy="2.5" fill="rgb(0,0,0)" r="1.75" stroke="rgb(0,0,0)" stroke-width="0.0" /><circle cx="20.0" cy="2.5" fill="rgb(0,0,0)" r="1.75" stroke="rgb(0,0,0)" stroke-width="0.0" /><circle cx="50.0" cy="2.5" fill="rgb(0,0,0)" r="1.75" stroke="rgb(0,0,0)" stroke-width="0.0" /><circle cx="60.0" cy="2.5" fill="rgb(0,0,0)" r="1.75" stroke="rgb(0,0,0)" stroke-width="0.0" /><circle cx="80.0" cy="2.5" fill="rgb(0,0,0)" r="1.75" stroke="rgb(0,0,0)" stroke-width="0.0" /><circle cx="85.0" cy="2.5" fill="rgb(0,0,0)" r="1.75" stroke="rgb(0,0,0)" stroke-width="0.0" /><circle cx="95.0" cy="2.5" fill="rgb(0,0,0)" r="1.75" stroke="rgb(0,0,0)" stroke-width="0.0" /><circle cx="100.0" cy="2.5" fill="rgb(0,0,0)" r="1.75" stroke="rgb(0,0,0)" stroke-width="0.0" /><text alignment-baseline="auto" fill="rgb(0,0,0)" font-family="Calibri, Arial" font-size="5.0" text-anchor="end" x="-2.5" y="8.75">ib</text><circle cx="15.0" cy="7.5" fill="rgb(0,0,0)" r="1.75" stroke="rgb(0,0,0)" stroke-width="0.0" /><circle cx="25.0" cy="7.5" fill="rgb(0,0,0)" r="1.75" stroke="rgb(0,0,0)" stroke-width="0.0" /><circle cx="35.0" cy="7.5" fill="rgb(0,0,0)" r="1.75" stroke="rgb(0,0,0)" stroke-width="0.0" /><circle cx="65.0" cy="7.5" fill="rgb(0,0,0)" r="1.75" stroke="rgb(0,0,0)" stroke-width="0.0" /><circle cx="75.0" cy="7.5" fill="rgb(0,0,0)" r="1.75" stroke="rgb(0,0,0)" stroke-width="0.0" /><circle cx="80.0" cy="7.5" fill="rgb(0,0,0)" r="1.75" stroke="rgb(0,0,0)" stroke-width="0.0" /><circle cx="85.0" cy="7.5" fill="rgb(0,0,0)" r="1.75" stroke="rgb(0,0,0)" stroke-width="0.0" /><circle cx="90.0" cy="7.5" fill="rgb(0,0,0)" r="1.75" stroke="rgb(0,0,0)" stroke-width="0.0" /><circle cx="115.0" cy="7.5" fill="rgb(0,0,0)" r="1.75" stroke="rgb(0,0,0)" stroke-width="0.0" /><text alignment-baseline="auto" fill="rgb(0,0,0)" font-family="Calibri, Arial" font-size="5.0" text-anchor="end" x="-2.5" y="35.4165">o</text><circle cx="50.0" cy="34.1665" fill="rgb(0,0,0)" r="1.75" stroke="rgb(0,0,0)" stroke-width="0.0" /><circle cx="60.0" cy="34.1665" fill="rgb(0,0,0)" r="1.75" stroke="rgb(0,0,0)" stroke-width="0.0" /><circle cx="70.0" cy="34.1665" fill="rgb(0,0,0)" r="1.75" stroke="rgb(0,0,0)" stroke-width="0.0" /><circle cx="100.0" cy="34.1665" fill="rgb(0,0,0)" r="1.75" stroke="rgb(0,0,0)" stroke-width="0.0" /><circle cx="110.0" cy="34.1665" fill="rgb(0,0,0)" r="1.75" stroke="rgb(0,0,0)" stroke-width="0.0" /><circle cx="130.0" cy="34.1665" fill="rgb(0,0,0)" r="1.75" stroke="rgb(0,0,0)" stroke-width="0.0" /><circle cx="140.0" cy="34.1665" fill="rgb(0,0,0)" r="1.75" stroke="rgb(0,0,0)" stroke-width="0.0" /><circle cx="150.0" cy="34.1665" fill="rgb(0,0,0)" r="1.75" stroke="rgb(0,0,0)" stroke-width="0.0" /><circle cx="160.0" cy="34.1665" fill="rgb(0,0,0)" r="1.75" stroke="rgb(0,0,0)" stroke-width="0.0" /><line stroke="rgb(0,0,0)" stroke-width="0.4" x1="0.0" x2="168.0" y1="0.0" y2="0.0" /><line stroke="rgb(0,0,0)" stroke-width="0.4" x1="0.0" x2="168.0" y1="36.6665" y2="36.6665" /></svg>