<?xml version="1.0" encoding="utf-8" ?>
<svg baseProfile="full" height="60.833mm" version="1.1" viewBox="-10.32958984375,-5.5,153.65458984375002,60.833" width="153.65458984375002mm" xmlns="http://www.w3.org/2000/svg" xmlns:ev="http://www.w3.org/2001/xml-events" xmlns:xlink="http://www.w3.org/1999/xlink"><defs><marker id="arrow" markerHeight="6" markerUnits="strokeWidth" markerWidth="6" orient="auto" refX="9" refY="3"><path d="M0,0 L0,6 L9,3 z" fill="#f00" /></marker></defs><rect fill="rgb(255,255,255)" height="53.333" stroke="rgb(0,0,0)" stroke-width="0.0" width="143.32500000000002" x="0.0" y="0.0" /><rect fill="rgb(240,240,240)" height="5.0" stroke="rgb(0,0,0)" stroke-width="0.0" width="143.32500000000002" x="0.0" y="5.0" /><rect fill="rgb(240,240,240)" height="5.0" stroke="rgb(0,0,0)" stroke-width="0.0" width="143.32500000000002" x="0.0" y="15.0" /><rect fill="rgb(240,240,240)" height="6.666499999999997" stroke="rgb(0,0,0)" stroke-width="0.0" width="143.32500000000002" x="0.0" y="25.0" /><rect fill="rgb(240,240,240)" height="5.0" stroke="rgb(0,0,0)" stroke-width="0.0" width="143.32500000000002" x="0.0" y="36.6665" /><rect fill="rgb(240,240,240)" height="5.0" stroke="rgb(0,0,0)" stroke-width="0.0" width="143.32500000000002" x="0.0" y="48.333" /><line stroke="rgb(0,0,0)" stroke-width="0.25" x1="0.0" x2="0.0" y1="0.0" y2="-1.5" /><line stroke="rgb(0,0,0)" stroke-width="0.25" x1="0.0" x2="0.0" y1="0.0" y2="53.333" /><text alignment-baseline="auto" fill="rgb(0,0,0)" font-family="Calibri, Arial" font-size="5.0" text-anchor="middle" x="0.0" y="-2.0">0</text><line stroke="rgb(0,0,0)" stroke-width="0.25" x1="25.0" x2="25.0" y1="0.0" y2="-1.5" /><line stroke="rgb(0,0,0)" stroke-width="0.25" x1="25.0" x2="25.0" y1="0.0" y2="53.333" /><text alignment-baseline="auto" fill="rgb(0,0,0)" font-family="Calibri, Arial" font-size="5.0" text-anchor="middle" x="25.0" y="-2.0">50</text><line stroke="rgb(0,0,0)" stroke-width="0.25" x1="50.0" x2="50.0" y1="0.0" y2="-1.5" /><line stroke="rgb(0,0,0)" stroke-width="0.25" x1="50.0" x2="50.0" y1="0.0" y2="53.333" /><text alignment-baseline="auto" fill="rgb(0,0,0)" font-family="Calibri, Arial" font-size="5.0" text-anchor="middle" x="50.0" y="-2.0">100</text><line stroke="rgb(0,0,0)" stroke-width="0.25" x1="75.0" x2="75.0" y1="0.0" y2="-1.5" /><line stroke="rgb(0,0,0)" stroke-width="0.25" x1="75.0" x2="75.0" y1="0.0" y2="53.333" /><text alignment-baseline="auto" fill="rgb(0,0,0)" font-family="Calibri, Arial" font-size="5.0" text-anchor="middle" x="75.0" y="-2.0">150</text><line stroke="rgb(0,0,0)" stroke-width="0.25" x1="100.0" x2="100.0" y1="0.0" y2="-1.5" /><line stroke="rgb(0,0,0)" stroke-width="0.25" x1="100.0" x2="100.0" y1="0.0" y2="53.333" /><text alignment-baseline="auto" fill="rgb(0,0,0)" font-family="Calibri, Arial" font-size="5.0" text-anchor="middle" x="100.0" y="-2.0">200</text><line stroke="rgb(0,0,0)" stroke-width="0.25" x1="125.0" x2="125.0" y1="0.0" y2="-1.5" /><line stroke="rgb(0,0,0)" stroke-width="0.25" x1="125.0" x2="125.0" y1="0.0" y2="53.333" /><text alignment-baseline="auto" fill="rgb(0,0,0)" font-family="Calibri, Arial" font-size="5.0" text-anchor="middle" x="125.0" y="-2.0">250</text><text alignment-baseline="auto" fill="rgb(0,0,0)" font-family="Calibri, Arial" font-size="5.0" text-anchor="end" x="-2.5" y="3.75">rd</text><rect fill="rgb(251,180,174)" height="5.0" stroke="rgb(0,0,0)" stroke-width="0" width="1.0" x="0.0" y="0.0" /><rect fill="rgb(225,162,156)" height="5.0" stroke="rgb(0,0,0)" stroke-width="0" width="1.0" x="1.0" y="0.0" /><rect fill="rgb(251,180,174)" height="5.0" stroke="rgb(0,0,0)" stroke-width="0" width="0.9999999999999998" x="2.0" y="0.0" /><rect fill="rgb(225,162,156)" height="5.0" stroke="rgb(0,0,0)" stroke-width="0" width="1.0000000000000004" x="3.0" y="0.0" /><rect fill="rgb(251,180,174)" height="5.0" stroke="rgb(0,0,0)" stroke-width="0" width="0.9999999999999998" x="4.0" y="0.0" /><rect fill="rgb(225,162,156)" height="5.0" stroke="rgb(0,0,0)" stroke-width="0" width="0.9999999999999998" x="5.0" y="0.0" /><rect fill="rgb(251,180,174)" height="5.0" stroke="rgb(0,0,0)" stroke-width="0" width="0.9999999999999998" x="6.0" y="0.0" /><rect fill="rgb(225,162,156)" height="5.0" stroke="rgb(0,0,0)" stroke-width="0" width="0.9999999999999987" x="13.0" y="0.0" /><rect fill="rgb(251,180,174)" height="5.0" stroke="rgb(0,0,0)" stroke-width="0" width="1.0000000000000009" x="20.0" y="0.0" /><rect fill="rgb(225,162,156)" height="5.0" stroke="rgb(0,0,0)" stroke-width="0" width="0.9999999999999964" x="27.0" y="0.0" /><rect fill="rgb(251,180,174)" height="5.0" stroke="rgb(0,0,0)" stroke-width="0" width="1.0000000000000009" x="34.0" y="0.0" /><rect fill="rgb(225,162,156)" height="5.0" stroke="rgb(0,0,0)" stroke-width="0" width="1.0000000000000053" x="41.0" y="0.0" /><rect fill="rgb(251,180,174)" height="5.0" stroke="rgb(0,0,0)" stroke-width="0" width="1.0000000000000053" x="48.0" y="0.0" /><rect fill="rgb(225,162,156)" height="5.0" stroke="rgb(0,0,0)" stroke-width="0" width="0.9999999999999964" x="55.0" y="0.0" /><text alignment-baseline="auto" fill="rgb(0,0,0)" font-family="Calibri, Arial" font-size="5.0" text-anchor="end" x="-2.5" y="8.75">ii</text><rect fill="rgb(179,205,227)" height="5.0" stroke="rgb(0,0,0)" stroke-width="0" width="1.0" x="1.0" y="5.0" /><rect fill="rgb(161,184,204)" height="5.0" stroke="rgb(0,0,0)" stroke-width="0" width="0.9999999999999998" x="2.0" y="5.0" /><rect fill="rgb(179,205,227)" height="5.0" stroke="rgb(0,0,0)" stroke-width="0" width="1.0000000000000004" x="3.0" y="5.0" /><rect fill="rgb(161,184,204)" height="5.0" stroke="rgb(0,0,0)" stroke-width="0" width="0.9999999999999998" x="4.0" y="5.0" /><rect fill="rgb(179,205,227)" height="5.0" stroke="rgb(0,0,0)" stroke-width="0" width="0.9999999999999998" x="5.0" y="5.0" /><rect fill="rgb(161,184,204)" height="5.0" stroke="rgb(0,0,0)" stroke-width="0" width="0.9999999999999998" x="6.0" y="5.0" /><rect fill="rgb(179,205,227)" height="5.0" stroke="rgb(0,0,0)" stroke-width="0" width="1.0000000000000009" x="7.0" y="5.0" /><rect fill="rgb(161,184,204)" height="5.0" stroke="rgb(0,0,0)" stroke-width="0" width="1.0000000000000009" x="21.5" y="5.0" /><rect fill="rgb(179,205,227)" height="5.0" stroke="rgb(0,0,0)" stroke-width="0" width="1.0000000000000009" x="36.0" y="5.0" /><rect fill="rgb(161,184,204)" height="5.0" stroke="rgb(0,0,0)" stroke-width="0" width="1.0000000000000053" x="50.5" y="5.0" /><rect fill="rgb(179,205,227)" height="5.0" stroke="rgb(0,0,0)" stroke-width="0" width="0.9999999999999964" x="65.0" y="5.0" /><rect fill="rgb(161,184,204)" height="5.0" stroke="rgb(0,0,0)" stroke-width="0" width="1.0000000000000053" x="79.5" y="5.0" /><rect fill="rgb(179,205,227)" height="5.0" stroke="rgb(0,0,0)" stroke-width="0" width="0.9999999999999964" x="94.0" y="5.0" /><rect fill="rgb(161,184,204)" height="5.0" stroke="rgb(0,0,0)" stroke-width="0" width="0.9999999999999964" x="108.5" y="5.0" /><text alignment-baseline="auto" fill="rgb(0,0,0)" font-family="Calibri, Arial" font-size="5.0" text-anchor="end" x="-2.5" y="13.75">l</text><rect fill="rgb(204,235,197)" height="5.0" stroke="rgb(0,0,0)" stroke-width="0" width="0.5" x="1.7500000000000002" y="10.0" /><rect fill="rgb(183,211,177)" height="5.0" stroke="rgb(0,0,0)" stroke-width="0" width="0.5" x="2.7499999999999996" y="10.0" /><rect fill="rgb(204,235,197)" height="5.0" stroke="rgb(0,0,0)" stroke-width="0" width="0.5" x="3.75" y="10.0" /><rect fill="rgb(183,211,177)" height="5.0" stroke="rgb(0,0,0)" stroke-width="0" width="0.5" x="4.75" y="10.0" /><rect fill="rgb(204,235,197)" height="5.0" stroke="rgb(0,0,0)" stroke-width="0" width="0.5" x="5.75" y="10.0" /><rect fill="rgb(183,211,177)" height="5.0" stroke="rgb(0,0,0)" stroke-width="0" width="0.5" x="6.749999999999999" y="10.0" /><rect fill="rgb(204,235,197)" height="5.0" stroke="rgb(0,0,0)" stroke-width="0" width="0.5" x="7.75" y="10.0" /><rect fill="rgb(183,211,177)" height="5.0" stroke="rgb(0,0,0)" stroke-width="0" width="0.5" x="22.25" y="10.0" /><rect fill="rgb(204,235,197)" height="5.0" stroke="rgb(0,0,0)" stroke-width="0" width="0.5" x="36.75" y="10.0" /><rect fill="rgb(183,211,177)" height="5.0" stroke="rgb(0,0,0)" stroke-width="0" width="0.5" x="51.25" y="10.0" /><rect fill="rgb(204,235,197)" height="5.0" stroke="rgb(0,0,0)" stroke-width="0" width="0.5" x="65.75" y="10.0" /><rect fill="rgb(183,211,177)" height="5.0" stroke="rgb(0,0,0)" stroke-width="0" width="0.5" x="80.25" y="10.0" /><rect fill="rgb(204,235,197)" height="5.0" stroke="rgb(0,0,0)" stroke-width="0" width="0.5" x="94.75" y="10.0" /><rect fill="rgb(183,211,177)" height="5.0" stroke="rgb(0,0,0)" stroke-width="0" width="0.5" x="109.24999999999999" y="10.0" /><text alignment-baseline="auto" fill="rgb(0,0,0)" font-family="Calibri, Arial" font-size="5.0" text-anchor="end" x="-2.5" y="18.75">rd</text><rect fill="rgb(222,203,228)" height="5.0" stroke="rgb(0,0,0)" stroke-width="0" width="1.0000000000000009" x="7.0" y="15.0" /><rect fill="rgb(199,182,205)" height="5.0" stroke="rgb(0,0,0)" stroke-width="0" width="0.9999999999999998" x="8.0" y="15.0" /><rect fill="rgb(222,203,228)" height="5.0" stroke="rgb(0,0,0)" stroke-width="0" width="0.9999999999999998" x="9.0" y="15.0" /><rect fill="rgb(199,182,205)" height="5.0" stroke="rgb(0,0,0)" stroke-width="0" width="1.0000000000000009" x="10.0" y="15.0" /><rect fill="rgb(222,203,228)" height="5.0" stroke="rgb(0,0,0)" stroke-width="0" width="0.9999999999999987" x="11.0" y="15.0" /><rect fill="rgb(199,182,205)" height="5.0" stroke="rgb(0,0,0)" stroke-width="0" width="1.0000000000000009" x="12.0" y="15.0" /><rect fill="rgb(222,203,228)" height="5.0" stroke="rgb(0,0,0)" stroke-width="0" width="1.0000000000000009" x="14.0" y="15.0" /><rect fill="rgb(199,182,205)" height="5.0" stroke="rgb(0,0,0)" stroke-width="0" width="1.0000000000000009" x="15.0" y="15.0" /><rect fill="rgb(222,203,228)" height="5.0" stroke="rgb(0,0,0)" stroke-width="0" width="0.9999999999999987" x="16.0" y="15.0" /><rect fill="rgb(199,182,205)" height="5.0" stroke="rgb(0,0,0)" stroke-width="0" width="1.0000000000000009" x="17.0" y="15.0" /><rect fill="rgb(222,203,228)" height="5.0" stroke="rgb(0,0,0)" stroke-width="0" width="0.9999999999999987" x="18.0" y="15.0" /><rect fill="rgb(199,182,205)" height="5.0" stroke="rgb(0,0,0)" stroke-width="0" width="1.0000000000000009" x="19.0" y="15.0" /><rect fill="rgb(222,203,228)" height="5.0" stroke="rgb(0,0,0)" stroke-width="0" width="1.0000000000000009" x="21.0" y="15.0" /><rect fill="rgb(199,182,205)" height="5.0" stroke="rgb(0,0,0)" stroke-width="0" width="0.9999999999999964" x="22.0" y="15.0" /><rect fill="rgb(222,203,228)" height="5.0" stroke="rgb(0,0,0)" stroke-width="0" width="1.0000000000000009" x="23.0" y="15.0" /><rect fill="rgb(199,182,205)" height="5.0" stroke="rgb(0,0,0)" stroke-width="0" width="1.0000000000000009" x="24.0" y="15.0" /><rect fill="rgb(222,203,228)" height="5.0" stroke="rgb(0,0,0)" stroke-width="0" width="1.0000000000000009" x="25.0" y="15.0" /><rect fill="rgb(199,182,205)" height="5.0" stroke="rgb(0,0,0)" stroke-width="0" width="1.0000000000000009" x="26.0" y="15.0" /><rect fill="rgb(222,203,228)" height="5.0" stroke="rgb(0,0,0)" stroke-width="0" width="1.0000000000000009" x="28.0" y="15.0" /><rect fill="rgb(199,182,205)" height="5.0" stroke="rgb(0,0,0)" stroke-width="0" width="1.0000000000000009" x="29.0" y="15.0" /><rect fill="rgb(222,203,228)" height="5.0" stroke="rgb(0,0,0)" stroke-width="0" width="1.0000000000000009" x="30.0" y="15.0" /><rect fill="rgb(199,182,205)" height="5.0" stroke="rgb(0,0,0)" stroke-width="0" width="1.0000000000000009" x="31.0" y="15.0" /><rect fill="rgb(222,203,228)" height="5.0" stroke="rgb(0,0,0)" stroke-width="0" width="0.9999999999999964" x="32.0" y="15.0" /><rect fill="rgb(199,182,205)" height="5.0" stroke="rgb(0,0,0)" stroke-width="0" width="1.0000000000000009" x="33.0" y="15.0" /><rect fill="rgb(222,203,228)" height="5.0" stroke="rgb(0,0,0)" stroke-width="0" width="1.0000000000000009" x="35.0" y="15.0" /><rect fill="rgb(199,182,205)" height="5.0" stroke="rgb(0,0,0)" stroke-width="0" width="1.0000000000000009" x="36.0" y="15.0" /><rect fill="rgb(222,203,228)" height="5.0" stroke="rgb(0,0,0)" stroke-width="0" width="0.9999999999999964" x="37.0" y="15.0" /><rect fill="rgb(199,182,205)" height="5.0" stroke="rgb(0,0,0)" stroke-width="0" width="1.0000000000000009" x="38.0" y="15.0" /><rect fill="rgb(222,203,228)" height="5.0" stroke="rgb(0,0,0)" stroke-width="0" width="1.0000000000000009" x="39.0" y="15.0" /><rect fill="rgb(199,182,205)" height="5.0" stroke="rgb(0,0,0)" stroke-width="0" width="0.9999999999999964" x="40.0" y="15.0" /><rect fill="rgb(222,203,228)" height="5.0" stroke="rgb(0,0,0)" stroke-width="0" width="0.9999999999999964" x="42.0" y="15.0" /><rect fill="rgb(199,182,205)" height="5.0" stroke="rgb(0,0,0)" stroke-width="0" width="1.0000000000000053" x="43.0" y="15.0" /><rect fill="rgb(222,203,228)" height="5.0" stroke="rgb(0,0,0)" stroke-width="0" width="0.9999999999999964" x="44.0" y="15.0" /><rect fill="rgb(199,182,205)" height="5.0" stroke="rgb(0,0,0)" stroke-width="0" width="0.9999999999999964" x="45.0" y="15.0" /><rect fill="rgb(222,203,228)" height="5.0" stroke="rgb(0,0,0)" stroke-width="0" width="1.0000000000000053" x="46.0" y="15.0" /><rect fill="rgb(199,182,205)" height="5.0" stroke="rgb(0,0,0)" stroke-width="0" width="0.9999999999999964" x="47.0" y="15.0" /><rect fill="rgb(222,203,228)" height="5.0" stroke="rgb(0,0,0)" stroke-width="0" width="0.9999999999999964" x="49.0" y="15.0" /><rect fill="rgb(199,182,205)" height="5.0" stroke="rgb(0,0,0)" stroke-width="0" width="0.9999999999999964" x="50.0" y="15.0" /><rect fill="rgb(222,203,228)" height="5.0" stroke="rgb(0,0,0)" stroke-width="0" width="1.0000000000000053" x="51.0" y="15.0" /><rect fill="rgb(199,182,205)" height="5.0" stroke="rgb(0,0,0)" stroke-width="0" width="0.9999999999999964" x="52.0" y="15.0" /><rect fill="rgb(222,203,228)" height="5.0" stroke="rgb(0,0,0)" stroke-width="0" width="1.0000000000000053" x="53.0" y="15.0" /><rect fill="rgb(199,182,205)" height="5.0" stroke="rgb(0,0,0)" stroke-width="0" width="0.9999999999999964" x="54.0" y="15.0" /><rect fill="rgb(222,203,228)" height="5.0" stroke="rgb(0,0,0)" stroke-width="0" width="1.0000000000000053" x="56.0" y="15.0" /><rect fill="rgb(199,182,205)" height="5.0" stroke="rgb(0,0,0)" stroke-width="0" width="0.9999999999999964" x="57.0" y="15.0" /><rect fill="rgb(222,203,228)" height="5.0" stroke="rgb(0,0,0)" stroke-width="0" width="1.0000000000000053" x="58.0" y="15.0" /><rect fill="rgb(199,182,205)" height="5.0" stroke="rgb(0,0,0)" stroke-width="0" width="0.9999999999999964" x="59.0" y="15.0" /><rect fill="rgb(222,203,228)" height="5.0" stroke="rgb(0,0,0)" stroke-width="0" width="0.9999999999999964" x="60.0" y="15.0" /><rect fill="rgb(199,182,205)" height="5.0" stroke="rgb(0,0,0)" stroke-width="0" width="1.0000000000000053" x="61.0" y="15.0" /><text alignment-baseline="auto" fill="rgb(0,0,0)" font-family="Calibri, Arial" font-size="5.0" text-anchor="end" x="-2.5" y="23.75">ii</text><rect fill="rgb(254,217,166)" height="5.0" stroke="rgb(0,0,0)" stroke-width="0" width="1.9999999999999996" x="8.0" y="20.0" /><rect fill="rgb(228,195,149)" height="5.0" stroke="rgb(0,0,0)" stroke-width="0" width="1.9999999999999996" x="10.0" y="20.0" /><rect fill="rgb(254,217,166)" height="5.0" stroke="rgb(0,0,0)" stroke-width="0" width="1.9999999999999996" x="12.0" y="20.0" /><rect fill="rgb(228,195,149)" height="5.0" stroke="rgb(0,0,0)" stroke-width="0" width="2.0000000000000018" x="14.0" y="20.0" /><rect fill="rgb(254,217,166)" height="5.0" stroke="rgb(0,0,0)" stroke-width="0" width="1.9999999999999996" x="16.0" y="20.0" /><rect fill="rgb(228,195,149)" height="5.0" stroke="rgb(0,0,0)" stroke-width="0" width="1.9999999999999996" x="18.0" y="20.0" /><rect fill="rgb(254,217,166)" height="5.0" stroke="rgb(0,0,0)" stroke-width="0" width="2.0000000000000018" x="22.5" y="20.0" /><rect fill="rgb(228,195,149)" height="5.0" stroke="rgb(0,0,0)" stroke-width="0" width="1.9999999999999973" x="24.5" y="20.0" /><rect fill="rgb(254,217,166)" height="5.0" stroke="rgb(0,0,0)" stroke-width="0" width="2.0000000000000018" x="26.5" y="20.0" /><rect fill="rgb(228,195,149)" height="5.0" stroke="rgb(0,0,0)" stroke-width="0" width="1.9999999999999973" x="28.5" y="20.0" /><rect fill="rgb(254,217,166)" height="5.0" stroke="rgb(0,0,0)" stroke-width="0" width="2.0000000000000018" x="30.5" y="20.0" /><rect fill="rgb(228,195,149)" height="5.0" stroke="rgb(0,0,0)" stroke-width="0" width="2.0000000000000018" x="32.5" y="20.0" /><rect fill="rgb(254,217,166)" height="5.0" stroke="rgb(0,0,0)" stroke-width="0" width="1.9999999999999973" x="37.0" y="20.0" /><rect fill="rgb(228,195,149)" height="5.0" stroke="rgb(0,0,0)" stroke-width="0" width="1.9999999999999973" x="39.0" y="20.0" /><rect fill="rgb(254,217,166)" height="5.0" stroke="rgb(0,0,0)" stroke-width="0" width="2.0000000000000018" x="41.0" y="20.0" /><rect fill="rgb(228,195,149)" height="5.0" stroke="rgb(0,0,0)" stroke-width="0" width="2.0000000000000018" x="43.0" y="20.0" /><rect fill="rgb(254,217,166)" height="5.0" stroke="rgb(0,0,0)" stroke-width="0" width="2.0000000000000018" x="45.0" y="20.0" /><rect fill="rgb(228,195,149)" height="5.0" stroke="rgb(0,0,0)" stroke-width="0" width="2.0000000000000018" x="47.0" y="20.0" /><rect fill="rgb(254,217,166)" height="5.0" stroke="rgb(0,0,0)" stroke-width="0" width="1.999999999999993" x="51.5" y="20.0" /><rect fill="rgb(228,195,149)" height="5.0" stroke="rgb(0,0,0)" stroke-width="0" width="2.0000000000000018" x="53.5" y="20.0" /><rect fill="rgb(254,217,166)" height="5.0" stroke="rgb(0,0,0)" stroke-width="0" width="2.0000000000000018" x="55.5" y="20.0" /><rect fill="rgb(228,195,149)" height="5.0" stroke="rgb(0,0,0)" stroke-width="0" width="2.0000000000000018" x="57.5" y="20.0" /><rect fill="rgb(254,217,166)" height="5.0" stroke="rgb(0,0,0)" stroke-width="0" width="2.0000000000000018" x="59.5" y="20.0" /><rect fill="rgb(228,195,149)" height="5.0" stroke="rgb(0,0,0)" stroke-width="0" width="1.999999999999993" x="61.5" y="20.0" /><rect fill="rgb(254,217,166)" height="5.0" stroke="rgb(0,0,0)" stroke-width="0" width="2.0000000000000018" x="66.0" y="20.0" /><rect fill="rgb(228,195,149)" height="5.0" stroke="rgb(0,0,0)" stroke-width="0" width="2.0000000000000018" x="68.0" y="20.0" /><rect fill="rgb(254,217,166)" height="5.0" stroke="rgb(0,0,0)" stroke-width="0" width="2.0000000000000018" x="70.0" y="20.0" /><rect fill="rgb(228,195,149)" height="5.0" stroke="rgb(0,0,0)" stroke-width="0" width="2.0000000000000018" x="72.0" y="20.0" /><rect fill="rgb(254,217,166)" height="5.0" stroke="rgb(0,0,0)" stroke-width="0" width="1.999999999999993" x="74.0" y="20.0" /><rect fill="rgb(228,195,149)" height="5.0" stroke="rgb(0,0,0)" stroke-width="0" width="2.0000000000000018" x="76.0" y="20.0" /><rect fill="rgb(254,217,166)" height="5.0" stroke="rgb(0,0,0)" stroke-width="0" width="1.999999999999993" x="80.5" y="20.0" /><rect fill="rgb(228,195,149)" height="5.0" stroke="rgb(0,0,0)" stroke-width="0" width="1.999999999999993" x="82.5" y="20.0" /><rect fill="rgb(254,217,166)" height="5.0" stroke="rgb(0,0,0)" stroke-width="0" width="2.0000000000000107" x="84.5" y="20.0" /><rect fill="rgb(228,195,149)" height="5.0" stroke="rgb(0,0,0)" stroke-width="0" width="1.999999999999993" x="86.5" y="20.0" /><rect fill="rgb(254,217,166)" height="5.0" stroke="rgb(0,0,0)" stroke-width="0" width="2.0000000000000107" x="88.5" y="20.0" /><rect fill="rgb(228,195,149)" height="5.0" stroke="rgb(0,0,0)" stroke-width="0" width="1.999999999999993" x="90.5" y="20.0" /><rect fill="rgb(254,217,166)" height="5.0" stroke="rgb(0,0,0)" stroke-width="0" width="1.999999999999993" x="95.0" y="20.0" /><rect fill="rgb(228,195,149)" height="5.0" stroke="rgb(0,0,0)" stroke-width="0" width="2.0000000000000107" x="97.0" y="20.0" /><rect fill="rgb(254,217,166)" height="5.0" stroke="rgb(0,0,0)" stroke-width="0" width="1.999999999999993" x="99.0" y="20.0" /><rect fill="rgb(228,195,149)" height="5.0" stroke="rgb(0,0,0)" stroke-width="0" width="2.0000000000000107" x="101.0" y="20.0" /><rect fill="rgb(254,217,166)" height="5.0" stroke="rgb(0,0,0)" stroke-width="0" width="1.999999999999993" x="103.0" y="20.0" /><rect fill="rgb(228,195,149)" height="5.0" stroke="rgb(0,0,0)" stroke-width="0" width="1.999999999999993" x="105.0" y="20.0" /><rect fill="rgb(254,217,166)" height="5.0" stroke="rgb(0,0,0)" stroke-width="0" width="2.0000000000000107" x="109.5" y="20.0" /><rect fill="rgb(228,195,149)" height="5.0" stroke="rgb(0,0,0)" stroke-width="0" width="1.999999999999993" x="111.5" y="20.0" /><rect fill="rgb(254,217,166)" height="5.0" stroke="rgb(0,0,0)" stroke-width="0" width="2.0000000000000107" x="113.5" y="20.0" /><rect fill="rgb(228,195,149)" height="5.0" stroke="rgb(0,0,0)" stroke-width="0" width="1.999999999999993" x="115.5" y="20.0" /><rect fill="rgb(254,217,166)" height="5.0" stroke="rgb(0,0,0)" stroke-width="0" width="1.999999999999993" x="117.5" y="20.0" /><rect fill="rgb(228,195,149)" height="5.0" stroke="rgb(0,0,0)" stroke-width="0" width="2.0000000000000107" x="119.5" y="20.0" /><text alignment-baseline="auto" fill="rgb(0,0,0)" font-family="Calibri, Arial" font-size="5.0" text-anchor="end" x="-2.5" y="29.58325">l</text><rect fill="rgb(255,255,204)" height="5.0" stroke="rgb(0,0,0)" stroke-width="0" width="2.5" x="10.0" y="25.0" /><rect fill="rgb(229,229,183)" height="5.0" stroke="rgb(0,0,0)" stroke-width="0" width="2.5" x="12.0" y="26.666500000000003" /><rect fill="rgb(255,255,204)" height="5.0" stroke="rgb(0,0,0)" stroke-width="0" width="2.5" x="14.0" y="25.0" /><rect fill="rgb(229,229,183)" height="5.0" stroke="rgb(0,0,0)" stroke-width="0" width="2.5" x="16.0" y="26.666500000000003" /><rect fill="rgb(255,255,204)" height="5.0" stroke="rgb(0,0,0)" stroke-width="0" width="2.499999999999998" x="18.0" y="25.0" /><rect fill="rgb(229,229,183)" height="5.0" stroke="rgb(0,0,0)" stroke-width="0" width="2.5" x="20.0" y="26.666500000000003" /><rect fill="rgb(255,255,204)" height="5.0" stroke="rgb(0,0,0)" stroke-width="0" width="2.5" x="24.5" y="25.0" /><rect fill="rgb(229,229,183)" height="5.0" stroke="rgb(0,0,0)" stroke-width="0" width="2.5" x="26.5" y="26.666500000000003" /><rect fill="rgb(255,255,204)" height="5.0" stroke="rgb(0,0,0)" stroke-width="0" width="2.5" x="28.5" y="25.0" /><rect fill="rgb(229,229,183)" height="5.0" stroke="rgb(0,0,0)" stroke-width="0" width="2.5" x="30.5" y="26.666500000000003" /><rect fill="rgb(255,255,204)" height="5.0" stroke="rgb(0,0,0)" stroke-width="0" width="2.5" x="32.5" y="25.0" /><rect fill="rgb(229,229,183)" height="5.0" stroke="rgb(0,0,0)" stroke-width="0" width="2.5" x="34.5" y="26.666500000000003" /><rect fill="rgb(255,255,204)" height="5.0" stroke="rgb(0,0,0)" stroke-width="0" width="2.5000000000000044" x="39.0" y="25.0" /><rect fill="rgb(229,229,183)" height="5.0" stroke="rgb(0,0,0)" stroke-width="0" width="2.5" x="41.0" y="26.666500000000003" /><rect fill="rgb(255,255,204)" height="5.0" stroke="rgb(0,0,0)" stroke-width="0" width="2.5" x="43.0" y="25.0" /><rect fill="rgb(229,229,183)" height="5.0" stroke="rgb(0,0,0)" stroke-width="0" width="2.5" x="45.0" y="26.666500000000003" /><rect fill="rgb(255,255,204)" height="5.0" stroke="rgb(0,0,0)" stroke-width="0" width="2.5" x="47.0" y="25.0" /><rect fill="rgb(229,229,183)" height="5.0" stroke="rgb(0,0,0)" stroke-width="0" width="2.5" x="49.0" y="26.666500000000003" /><rect fill="rgb(255,255,204)" height="5.0" stroke="rgb(0,0,0)" stroke-width="0" width="2.5" x="53.5" y="25.0" /><rect fill="rgb(229,229,183)" height="5.0" stroke="rgb(0,0,0)" stroke-width="0" width="2.5" x="55.5" y="26.666500000000003" /><rect fill="rgb(255,255,204)" height="5.0" stroke="rgb(0,0,0)" stroke-width="0" width="2.5" x="57.5" y="25.0" /><rect fill="rgb(229,229,183)" height="5.0" stroke="rgb(0,0,0)" stroke-width="0" width="2.5" x="59.5" y="26.666500000000003" /><rect fill="rgb(255,255,204)" height="5.0" stroke="rgb(0,0,0)" stroke-width="0" width="2.5" x="61.5" y="25.0" /><rect fill="rgb(229,229,183)" height="5.0" stroke="rgb(0,0,0)" stroke-width="0" width="2.5" x="63.5" y="26.666500000000003" /><rect fill="rgb(255,255,204)" height="5.0" stroke="rgb(0,0,0)" stroke-width="0" width="2.5" x="68.0" y="25.0" /><rect fill="rgb(229,229,183)" height="5.0" stroke="rgb(0,0,0)" stroke-width="0" width="2.5" x="70.0" y="26.666500000000003" /><rect fill="rgb(255,255,204)" height="5.0" stroke="rgb(0,0,0)" stroke-width="0" width="2.5" x="72.0" y="25.0" /><rect fill="rgb(229,229,183)" height="5.0" stroke="rgb(0,0,0)" stroke-width="0" width="2.5" x="74.0" y="26.666500000000003" /><rect fill="rgb(255,255,204)" height="5.0" stroke="rgb(0,0,0)" stroke-width="0" width="2.5" x="76.0" y="25.0" /><rect fill="rgb(229,229,183)" height="5.0" stroke="rgb(0,0,0)" stroke-width="0" width="2.500000000000009" x="78.0" y="26.666500000000003" /><rect fill="rgb(255,255,204)" height="5.0" stroke="rgb(0,0,0)" stroke-width="0" width="2.5" x="82.5" y="25.0" /><rect fill="rgb(229,229,183)" height="5.0" stroke="rgb(0,0,0)" stroke-width="0" width="2.5" x="84.5" y="26.666500000000003" /><rect fill="rgb(255,255,204)" height="5.0" stroke="rgb(0,0,0)" stroke-width="0" width="2.5" x="86.5" y="25.0" /><rect fill="rgb(229,229,183)" height="5.0" stroke="rgb(0,0,0)" stroke-width="0" width="2.5" x="88.5" y="26.666500000000003" /><rect fill="rgb(255,255,204)" height="5.0" stroke="rgb(0,0,0)" stroke-width="0" width="2.5" x="90.5" y="25.0" /><rect fill="rgb(229,229,183)" height="5.0" stroke="rgb(0,0,0)" stroke-width="0" width="2.5" x="92.5" y="26.666500000000003" /><rect fill="rgb(255,255,204)" height="5.0" stroke="rgb(0,0,0)" stroke-width="0" width="2.5" x="97.0" y="25.0" /><rect fill="rgb(229,229,183)" height="5.0" stroke="rgb(0,0,0)" stroke-width="0" width="2.5" x="99.0" y="26.666500000000003" /><rect fill="rgb(255,255,204)" height="5.0" stroke="rgb(0,0,0)" stroke-width="0" width="2.5" x="101.0" y="25.0" /><rect fill="rgb(229,229,183)" height="5.0" stroke="rgb(0,0,0)" stroke-width="0" width="2.5" x="103.0" y="26.666500000000003" /><rect fill="rgb(255,255,204)" height="5.0" stroke="rgb(0,0,0)" stroke-width="0" width="2.5" x="105.0" y="25.0" /><rect fill="rgb(229,229,183)" height="5.0" stroke="rgb(0,0,0)" stroke-width="0" width="2.5" x="107.0" y="26.666500000000003" /><rect fill="rgb(255,255,204)" height="5.0" stroke="rgb(0,0,0)" stroke-width="0" width="2.5" x="111.5" y="25.0" /><rect fill="rgb(229,229,183)" height="5.0" stroke="rgb(0,0,0)" stroke-width="0" width="2.5" x="113.5" y="26.666500000000003" /><rect fill="rgb(255,255,204)" height="5.0" stroke="rgb(0,0,0)" stroke-width="0" width="2.5" x="115.5" y="25.0" /><rect fill="rgb(229,229,183)" height="5.0" stroke="rgb(0,0,0)" stroke-width="0" width="2.5" x="117.5" y="26.666500000000003" /><rect fill="rgb(255,255,204)" height="5.0" stroke="rgb(0,0,0)" stroke-width="0" width="2.5" x="119.5" y="25.0" /><rect fill="rgb(229,229,183)" height="5.0" stroke="rgb(0,0,0)" stroke-width="0" width="2.5" x="121.5" y="26.666500000000003" /><text alignment-baseline="auto" fill="rgb(0,0,0)" font-family="Calibri, Arial" font-size="5.0" text-anchor="end" x="-2.5" y="35.4165">wr</text><rect fill="rgb(251,180,174)" height="5.0" stroke="rgb(0,0,0)" stroke-width="0" width="1.0000000000000009" x="12.5" y="31.6665" /><rect fill="rgb(225,162,156)" height="5.0" stroke="rgb(0,0,0)" stroke-width="0" width="1.0000000000000009" x="14.5" y="31.6665" /><rect fill="rgb(251,180,174)" height="5.0" stroke="rgb(0,0,0)" stroke-width="0" width="1.0000000000000009" x="16.5" y="31.6665" /><rect fill="rgb(225,162,156)" height="5.0" stroke="rgb(0,0,0)" stroke-width="0" width="0.9999999999999987" x="18.5" y="31.6665" /><rect fill="rgb(251,180,174)" height="5.0" stroke="rgb(0,0,0)" stroke-width="0" width="1.0000000000000009" x="20.5" y="31.6665" /><rect fill="rgb(225,162,156)" height="5.0" stroke="rgb(0,0,0)" stroke-width="0" width="1.0000000000000009" x="22.5" y="31.6665" /><rect fill="rgb(251,180,174)" height="5.0" stroke="rgb(0,0,0)" stroke-width="0" width="0.9999999999999964" x="27.0" y="31.6665" /><rect fill="rgb(225,162,156)" height="5.0" stroke="rgb(0,0,0)" stroke-width="0" width="1.0000000000000009" x="29.0" y="31.6665" /><rect fill="rgb(251,180,174)" height="5.0" stroke="rgb(0,0,0)" stroke-width="0" width="1.0000000000000009" x="31.0" y="31.6665" /><rect fill="rgb(225,162,156)" height="5.0" stroke="rgb(0,0,0)" stroke-width="0" width="1.0000000000000009" x="33.0" y="31.6665" /><rect fill="rgb(251,180,174)" height="5.0" stroke="rgb(0,0,0)" stroke-width="0" width="1.0000000000000009" x="35.0" y="31.6665" /><rect fill="rgb(225,162,156)" height="5.0" stroke="rgb(0,0,0)" stroke-width="0" width="0.9999999999999964" x="37.0" y="31.6665" /><rect fill="rgb(251,180,174)" height="5.0" stroke="rgb(0,0,0)" stroke-width="0" width="0.9999999999999964" x="41.5" y="31.6665" /><rect fill="rgb(225,162,156)" height="5.0" stroke="rgb(0,0,0)" stroke-width="0" width="1.0000000000000053" x="43.5" y="31.6665" /><rect fill="rgb(251,180,174)" height="5.0" stroke="rgb(0,0,0)" stroke-width="0" width="1.0000000000000053" x="45.5" y="31.6665" /><rect fill="rgb(225,162,156)" height="5.0" stroke="rgb(0,0,0)" stroke-width="0" width="0.9999999999999964" x="47.5" y="31.6665" /><rect fill="rgb(251,180,174)" height="5.0" stroke="rgb(0,0,0)" stroke-width="0" width="0.9999999999999964" x="49.5" y="31.6665" /><rect fill="rgb(225,162,156)" height="5.0" stroke="rgb(0,0,0)" stroke-width="0" width="0.9999999999999964" x="51.5" y="31.6665" /><rect fill="rgb(251,180,174)" height="5.0" stroke="rgb(0,0,0)" stroke-width="0" width="1.0000000000000053" x="56.0" y="31.6665" /><rect fill="rgb(225,162,156)" height="5.0" stroke="rgb(0,0,0)" stroke-width="0" width="1.0000000000000053" x="58.0" y="31.6665" /><rect fill="rgb(251,180,174)" height="5.0" stroke="rgb(0,0,0)" stroke-width="0" width="0.9999999999999964" x="60.0" y="31.6665" /><rect fill="rgb(225,162,156)" height="5.0" stroke="rgb(0,0,0)" stroke-width="0" width="0.9999999999999964" x="62.0" y="31.6665" /><rect fill="rgb(251,180,174)" height="5.0" stroke="rgb(0,0,0)" stroke-width="0" width="0.9999999999999964" x="64.0" y="31.6665" /><rect fill="rgb(225,162,156)" height="5.0" stroke="rgb(0,0,0)" stroke-width="0" width="1.0000000000000053" x="66.0" y="31.6665" /><rect fill="rgb(251,180,174)" height="5.0" stroke="rgb(0,0,0)" stroke-width="0" width="1.0000000000000053" x="70.5" y="31.6665" /><rect fill="rgb(225,162,156)" height="5.0" stroke="rgb(0,0,0)" stroke-width="0" width="0.9999999999999964" x="72.5" y="31.6665" /><rect fill="rgb(251,180,174)" height="5.0" stroke="rgb(0,0,0)" stroke-width="0" width="0.9999999999999964" x="74.5" y="31.6665" /><rect fill="rgb(225,162,156)" height="5.0" stroke="rgb(0,0,0)" stroke-width="0" width="0.9999999999999964" x="76.5" y="31.6665" /><rect fill="rgb(251,180,174)" height="5.0" stroke="rgb(0,0,0)" stroke-width="0" width="1.0000000000000053" x="78.5" y="31.6665" /><rect fill="rgb(225,162,156)" height="5.0" stroke="rgb(0,0,0)" stroke-width="0" width="0.9999999999999964" x="80.5" y="31.6665" /><rect fill="rgb(251,180,174)" height="5.0" stroke="rgb(0,0,0)" stroke-width="0" width="0.9999999999999964" x="85.0" y="31.6665" /><rect fill="rgb(225,162,156)" height="5.0" stroke="rgb(0,0,0)" stroke-width="0" width="1.0000000000000142" x="87.0" y="31.6665" /><rect fill="rgb(251,180,174)" height="5.0" stroke="rgb(0,0,0)" stroke-width="0" width="0.9999999999999964" x="89.0" y="31.6665" /><rect fill="rgb(225,162,156)" height="5.0" stroke="rgb(0,0,0)" stroke-width="0" width="0.9999999999999964" x="91.0" y="31.6665" /><rect fill="rgb(251,180,174)" height="5.0" stroke="rgb(0,0,0)" stroke-width="0" width="0.9999999999999964" x="93.0" y="31.6665" /><rect fill="rgb(225,162,156)" height="5.0" stroke="rgb(0,0,0)" stroke-width="0" width="0.9999999999999964" x="95.0" y="31.6665" /><rect fill="rgb(251,180,174)" height="5.0" stroke="rgb(0,0,0)" stroke-width="0" width="1.0000000000000142" x="99.5" y="31.6665" /><rect fill="rgb(225,162,156)" height="5.0" stroke="rgb(0,0,0)" stroke-width="0" width="0.9999999999999964" x="101.5" y="31.6665" /><rect fill="rgb(251,180,174)" height="5.0" stroke="rgb(0,0,0)" stroke-width="0" width="0.9999999999999964" x="103.5" y="31.6665" /><rect fill="rgb(225,162,156)" height="5.0" stroke="rgb(0,0,0)" stroke-width="0" width="0.9999999999999964" x="105.5" y="31.6665" /><rect fill="rgb(251,180,174)" height="5.0" stroke="rgb(0,0,0)" stroke-width="0" width="0.9999999999999964" x="107.5" y="31.6665" /><rect fill="rgb(225,162,156)" height="5.0" stroke="rgb(0,0,0)" stroke-width="0" width="1.0000000000000142" x="109.5" y="31.6665" /><rect fill="rgb(251,180,174)" height="5.0" stroke="rgb(0,0,0)" stroke-width="0" width="0.9999999999999964" x="114.0" y="31.6665" /><rect fill="rgb(225,162,156)" height="5.0" stroke="rgb(0,0,0)" stroke-width="0" width="0.9999999999999964" x="116.0" y="31.6665" /><rect fill="rgb(251,180,174)" height="5.0" stroke="rgb(0,0,0)" stroke-width="0" width="0.9999999999999964" x="118.0" y="31.6665" /><rect fill="rgb(225,162,156)" height="5.0" stroke="rgb(0,0,0)" stroke-width="0" width="0.9999999999999964" x="120.0" y="31.6665" /><rect fill="rgb(251,180,174)" height="5.0" stroke="rgb(0,0,0)" stroke-width="0" width="1.0000000000000142" x="122.0" y="31.6665" /><rect fill="rgb(225,162,156)" height="5.0" stroke="rgb(0,0,0)" stroke-width="0" width="0.9999999999999964" x="124.0" y="31.6665" /><text alignment-baseline="auto" fill="rgb(0,0,0)" font-family="Calibri, Arial" font-size="5.0" text-anchor="end" x="-2.5" y="40.4165">ii</text><rect fill="rgb(179,205,227)" height="5.0" stroke="rgb(0,0,0)" stroke-width="0" width="1.4999999999999991" x="20.0" y="36.6665" /><rect fill="rgb(161,184,204)" height="5.0" stroke="rgb(0,0,0)" stroke-width="0" width="1.4999999999999991" x="34.5" y="36.6665" /><rect fill="rgb(179,205,227)" height="5.0" stroke="rgb(0,0,0)" stroke-width="0" width="1.4999999999999947" x="49.0" y="36.6665" /><rect fill="rgb(161,184,204)" height="5.0" stroke="rgb(0,0,0)" stroke-width="0" width="1.5000000000000036" x="63.5" y="36.6665" /><rect fill="rgb(179,205,227)" height="5.0" stroke="rgb(0,0,0)" stroke-width="0" width="1.5000000000000036" x="78.0" y="36.6665" /><rect fill="rgb(161,184,204)" height="5.0" stroke="rgb(0,0,0)" stroke-width="0" width="1.5000000000000036" x="92.5" y="36.6665" /><rect fill="rgb(179,205,227)" height="5.0" stroke="rgb(0,0,0)" stroke-width="0" width="1.5000000000000036" x="107.0" y="36.6665" /><rect fill="rgb(161,184,204)" height="5.0" stroke="rgb(0,0,0)" stroke-width="0" width="1.5000000000000036" x="121.5" y="36.6665" /><rect fill="rgb(179,205,227)" height="5.0" stroke="rgb(0,0,0)" stroke-width="0" width="1.4999999999999858" x="123.0" y="36.6665" /><rect fill="rgb(161,184,204)" height="5.0" stroke="rgb(0,0,0)" stroke-width="0" width="1.5000000000000036" x="124.5" y="36.6665" /><rect fill="rgb(179,205,227)" height="5.0" stroke="rgb(0,0,0)" stroke-width="0" width="1.5000000000000036" x="126.0" y="36.6665" /><rect fill="rgb(161,184,204)" height="5.0" stroke="rgb(0,0,0)" stroke-width="0" width="1.5000000000000036" x="127.5" y="36.6665" /><rect fill="rgb(179,205,227)" height="5.0" stroke="rgb(0,0,0)" stroke-width="0" width="1.5000000000000036" x="129.0" y="36.6665" /><rect fill="rgb(161,184,204)" height="5.0" stroke="rgb(0,0,0)" stroke-width="0" width="1.4999999999999858" x="130.5" y="36.6665" /><rect fill="rgb(179,205,227)" height="5.0" stroke="rgb(0,0,0)" stroke-width="0" width="1.5000000000000036" x="132.0" y="36.6665" /><text alignment-baseline="auto" fill="rgb(0,0,0)" font-family="Calibri, Arial" font-size="5.0" text-anchor="end" x="-2.5" y="46.24974999999999">l</text><rect fill="rgb(204,235,197)" height="5.0" stroke="rgb(0,0,0)" stroke-width="0" width="2.0000000000000018" x="21.5" y="41.6665" /><rect fill="rgb(183,211,177)" height="5.0" stroke="rgb(0,0,0)" stroke-width="0" width="1.9999999999999973" x="36.0" y="41.6665" /><rect fill="rgb(204,235,197)" height="5.0" stroke="rgb(0,0,0)" stroke-width="0" width="2.0000000000000018" x="50.5" y="41.6665" /><rect fill="rgb(183,211,177)" height="5.0" stroke="rgb(0,0,0)" stroke-width="0" width="2.0000000000000018" x="65.0" y="41.6665" /><rect fill="rgb(204,235,197)" height="5.0" stroke="rgb(0,0,0)" stroke-width="0" width="2.0000000000000018" x="79.5" y="41.6665" /><rect fill="rgb(183,211,177)" height="5.0" stroke="rgb(0,0,0)" stroke-width="0" width="1.999999999999993" x="94.0" y="41.6665" /><rect fill="rgb(204,235,197)" height="5.0" stroke="rgb(0,0,0)" stroke-width="0" width="2.0000000000000107" x="108.5" y="41.6665" /><rect fill="rgb(183,211,177)" height="5.0" stroke="rgb(0,0,0)" stroke-width="0" width="1.999999999999993" x="123.0" y="41.6665" /><rect fill="rgb(204,235,197)" height="5.0" stroke="rgb(0,0,0)" stroke-width="0" width="2.0000000000000107" x="124.5" y="43.333" /><rect fill="rgb(183,211,177)" height="5.0" stroke="rgb(0,0,0)" stroke-width="0" width="2.0000000000000107" x="126.0" y="41.6665" /><rect fill="rgb(204,235,197)" height="5.0" stroke="rgb(0,0,0)" stroke-width="0" width="1.999999999999993" x="127.5" y="43.333" /><rect fill="rgb(183,211,177)" height="5.0" stroke="rgb(0,0,0)" stroke-width="0" width="1.999999999999993" x="129.0" y="41.6665" /><rect fill="rgb(204,235,197)" height="5.0" stroke="rgb(0,0,0)" stroke-width="0" width="1.999999999999993" x="130.5" y="43.333" /><rect fill="rgb(183,211,177)" height="5.0" stroke="rgb(0,0,0)" stroke-width="0" width="2.0000000000000107" x="132.0" y="41.6665" /><rect fill="rgb(204,235,197)" height="5.0" stroke="rgb(0,0,0)" stroke-width="0" width="2.0000000000000107" x="133.5" y="43.333" /><text alignment-baseline="auto" fill="rgb(0,0,0)" font-family="Calibri, Arial" font-size="5.0" text-anchor="end" x="-2.5" y="52.083">wr</text><rect fill="rgb(222,203,228)" height="5.0" stroke="rgb(0,0,0)" stroke-width="0" width="1.0000000000000009" x="23.5" y="48.333" /><rect fill="rgb(199,182,205)" height="5.0" stroke="rgb(0,0,0)" stroke-width="0" width="1.0000000000000009" x="38.0" y="48.333" /><rect fill="rgb(222,203,228)" height="5.0" stroke="rgb(0,0,0)" stroke-width="0" width="0.9999999999999964" x="52.5" y="48.333" /><rect fill="rgb(199,182,205)" height="5.0" stroke="rgb(0,0,0)" stroke-width="0" width="0.9999999999999964" x="67.0" y="48.333" /><rect fill="rgb(222,203,228)" height="5.0" stroke="rgb(0,0,0)" stroke-width="0" width="0.9999999999999964" x="81.5" y="48.333" /><rect fill="rgb(199,182,205)" height="5.0" stroke="rgb(0,0,0)" stroke-width="0" width="0.9999999999999964" x="96.0" y="48.333" /><rect fill="rgb(222,203,228)" height="5.0" stroke="rgb(0,0,0)" stroke-width="0" width="0.9999999999999964" x="110.5" y="48.333" /><rect fill="rgb(199,182,205)" height="5.0" stroke="rgb(0,0,0)" stroke-width="0" width="0.9999999999999964" x="125.0" y="48.333" /><rect fill="rgb(222,203,228)" height="5.0" stroke="rgb(0,0,0)" stroke-width="0" width="0.9999999999999964" x="126.5" y="48.333" /><rect fill="rgb(199,182,205)" height="5.0" stroke="rgb(0,0,0)" stroke-width="0" width="0.9999999999999964" x="128.0" y="48.333" /><rect fill="rgb(222,203,228)" height="5.0" stroke="rgb(0,0,0)" stroke-width="0" width="1.0000000000000142" x="129.5" y="48.333" /><rect fill="rgb(199,182,205)" height="5.0" stroke="rgb(0,0,0)" stroke-width="0" width="0.9999999999999964" x="131.0" y="48.333" /><rect fill="rgb(222,203,228)" height="5.0" stroke="rgb(0,0,0)" stroke-width="0" width="0.9999999999999964" x="132.5" y="48.333" /><rect fill="rgb(199,182,205)" height="5.0" stroke="rgb(0,0,0)" stroke-width="0" width="0.9999999999999964" x="134.0" y="48.333" /><rect fill="rgb(222,203,228)" height="5.0" stroke="rgb(0,0,0)" stroke-width="0" width="0.9999999999999964" x="135.5" y="48.333" /><line stroke="rgb(0,0,0)" stroke-width="0.4" x1="0.0" x2="0.0" y1="-0.2" y2="53.533" /><line stroke="rgb(0,0,0)" stroke-width="0.4" x1="0.0" x2="143.32500000000002" y1="0.0" y2="0.0" /><line stroke="rgb(0,0,0)" stroke-width="0.4" x1="0.0" x2="143.32500000000002" y1="53.333" y2="53.333" /></svg>